<?xml version="1.0" encoding="utf-8"?>
<!-- Generator: Adobe Illustrator 22.1.0, SVG Export Plug-In . SVG Version: 6.00 Build 0)  -->
<svg version="1.1" id="Layer_1" xmlns="http://www.w3.org/2000/svg" xmlns:xlink="http://www.w3.org/1999/xlink" x="0px" y="0px"
	 viewBox="0 0 70 70" style="enable-background:new 0 0 70 70;" xml:space="preserve">
<style type="text/css">
	.st0{opacity:0.8;}
	.st1{fill:#F2D9AD;stroke:#FFFFFF;stroke-miterlimit:10;}
	.st2{fill:#F8E1AB;stroke:#FFFFFF;stroke-miterlimit:10;}
	.st3{fill:url(#SVGID_1_);}
	.st4{opacity:0.3;fill:#256936;}
	.st5{fill:url(#SVGID_2_);}
	.st6{opacity:0.6;fill:#256936;}
	.st7{opacity:0.2;fill:#D7DF23;}
	.st8{fill:url(#SVGID_3_);}
	.st9{opacity:0.4;fill:#256936;}
	.st10{fill:#35BC4B;}
	.st11{opacity:0.8;fill:#F2D9AD;}
	.st12{fill:url(#SVGID_4_);}
	.st13{opacity:0.3;clip-path:url(#SVGID_6_);fill:#FFFFFF;}
	.st14{opacity:0.3;}
	.st15{opacity:0.3;fill:#FFFFFF;}
	.st16{fill:#CEB386;}
	.st17{opacity:0.9;fill:#CEB386;}
	.st18{fill:#FFFFFF;}
	.st19{fill:#F8E1AB;stroke:#FFFFFF;stroke-linecap:round;stroke-linejoin:round;stroke-miterlimit:10;}
	.st20{fill:url(#SVGID_9_);}
	.st21{fill:#F2D9AD;}
	.st22{fill:url(#SVGID_10_);}
	.st23{fill:url(#SVGID_11_);}
	.st24{fill:#4E9920;}
	.st25{fill:#B10842;}
	.st26{fill:#F0A510;}
	.st27{fill:#26600E;}
	.st28{fill:#13063D;}
	.st29{fill:#265908;}
	.st30{fill:#632812;}
	.st31{fill:#39690A;}
	.st32{fill:#E5E5E5;}
	.st33{fill:#E6E6E6;}
	.st34{fill:#257840;}
	.st35{fill:#572A11;}
	.st36{fill:#E7E8E7;}
	.st37{fill:#377009;}
	.st38{fill:#63B166;}
	.st39{fill:#EAEAE9;}
	.st40{fill:#CDD2D4;}
	.st41{fill:#B04E72;}
	.st42{fill:#647F53;}
	.st43{fill:#86213B;}
	.st44{fill:#446B2D;}
	.st45{fill:#A22350;}
	.st46{fill:#933254;}
	.st47{fill:#456A34;}
	.st48{fill:#7E3439;}
	.st49{fill:#375B1F;}
	.st50{fill:#D25177;}
	.st51{fill:#D6527B;}
	.st52{fill:#893541;}
	.st53{fill:#CC4169;}
	.st54{fill:#BE3661;}
	.st55{fill:#862D3A;}
	.st56{fill:#761D25;}
	.st57{fill:#C83263;}
	.st58{fill:#D84977;}
	.st59{fill:#FBDA56;}
	.st60{fill:#EDB349;}
	.st61{fill:#FBE89C;}
	.st62{fill:#EDAA14;}
	.st63{fill:#FACA08;}
	.st64{fill:#FADB56;}
	.st65{fill:#F9CB0E;}
	.st66{fill:#F8CB0F;}
	.st67{fill:#FACA10;}
	.st68{fill:#BDAF9B;}
	.st69{fill:#F9E16C;}
	.st70{fill:#F6E37C;}
	.st71{fill:#247C20;}
	.st72{fill:#439011;}
	.st73{fill:#74AF50;}
	.st74{fill:#C7CAC5;}
	.st75{fill:#A8CB8E;}
	.st76{fill:#9DC885;}
	.st77{fill:#341D88;}
	.st78{fill:#211257;}
	.st79{fill:#D2D1D1;}
	.st80{fill:#8374B8;}
	.st81{fill:#659D43;}
	.st82{fill:#262F35;}
	.st83{fill:#980034;}
	.st84{fill:#B75172;}
	.st85{fill:#9E1443;}
	.st86{fill:#C8657C;}
	.st87{fill:#5A1024;}
	.st88{fill:#BA5072;}
	.st89{fill:#A5556A;}
	.st90{fill:#C68594;}
	.st91{fill:#C78597;}
	.st92{fill:#649833;}
	.st93{fill:#8DB165;}
	.st94{fill:#659832;}
	.st95{fill:#669730;}
	.st96{fill:#84AD5D;}
	.st97{fill:#649832;}
	.st98{fill:#5B0263;}
	.st99{fill:#348306;}
	.st100{fill:#49074D;}
	.st101{fill:#4D0653;}
	.st102{fill:#460D4B;}
	.st103{fill:#43230F;}
	.st104{fill:#42134D;}
	.st105{fill:#43164A;}
	.st106{fill:#975297;}
	.st107{fill:#975299;}
	.st108{fill:#965297;}
	.st109{fill:#975198;}
	.st110{fill:#975296;}
	.st111{fill:#975196;}
	.st112{fill:#975197;}
	.st113{fill:#965298;}
	.st114{fill:#49034D;}
	.st115{fill:#965197;}
	.st116{fill:#945298;}
	.st117{fill:#944B99;}
	.st118{fill:#9B55A1;}
	.st119{fill:#A264B1;}
	.st120{fill:#F8F7F6;}
	.st121{fill:#96529B;}
	.st122{fill:#9760A9;}
	.st123{fill:#9DE087;}
	.st124{fill:#70BE70;}
	.st125{fill:#EAEDE5;}
	.st126{fill:#84072A;}
	.st127{fill:#E57D1A;}
	.st128{fill:#438605;}
	.st129{fill:#E7E7E7;}
	.st130{fill:#F26A12;}
	.st131{fill:#CE6816;}
	.st132{fill:#B8D691;}
	.st133{fill:#FC9902;}
	.st134{fill:#F9E4BD;}
	.st135{fill:#F9AD49;}
	.st136{fill:#CBCBCA;}
	.st137{fill:#FABC5C;}
	.st138{fill:#F9BB5C;}
	.st139{fill:#B1AEAE;}
	.st140{fill:#FBE892;}
	.st141{fill:#5EA138;}
	.st142{fill:#F6B448;}
	.st143{fill:#F6B24D;}
	.st144{fill:#9E763B;}
	.st145{fill:#F0DC0A;}
	.st146{fill:#F5C013;}
	.st147{fill:#ECE506;}
	.st148{fill:#F5F28D;}
	.st149{fill:#FAF7DA;}
	.st150{fill:#F0E948;}
	.st151{fill:#F5C407;}
	.st152{fill:#F8F8DF;}
	.st153{fill:#F0EC46;}
	.st154{fill:#F6F3A1;}
	.st155{fill:#F7F2A2;}
	.st156{fill:#F4EE73;}
	.st157{fill:#1D023B;}
	.st158{fill:#336C03;}
	.st159{fill:#2F0B59;}
	.st160{fill:#320263;}
	.st161{fill:#322349;}
	.st162{fill:#300262;}
	.st163{fill:#5F477E;}
	.st164{fill:#1A7E2B;}
	.st165{fill:#330365;}
	.st166{fill:#320364;}
	.st167{fill:#330465;}
	.st168{fill:#320363;}
	.st169{fill:#2E055B;}
	.st170{fill:#654587;}
	.st171{fill:#67448C;}
	.st172{fill:#2E0360;}
	.st173{fill:#5C3C7D;}
	.st174{fill:#5D3681;}
	.st175{fill:#338707;}
	.st176{fill:#5E407E;}
	.st177{fill:#8971A8;}
	.st178{fill:#8B6FAC;}
	.st179{fill:#8C6BA8;}
	.st180{fill:#316808;}
	.st181{fill:#A57C52;}
	.st182{fill:#A78C66;}
	.st183{fill:#347A02;}
	.st184{fill:#339505;}
	.st185{fill:#339704;}
	.st186{fill:#359505;}
	.st187{fill:#ABD596;}
	.st188{fill:#A9D194;}
	.st189{fill:#9FD589;}
	.st190{fill:#D7C2A7;}
	.st191{fill:#A57730;}
	.st192{fill:#FCCB05;}
	.st193{fill:#FCCB04;}
	.st194{fill:#D8A504;}
	.st195{fill:#D8A505;}
	.st196{fill:#FBCB05;}
	.st197{fill:#D8A506;}
	.st198{fill:#FACC07;}
	.st199{fill:#F9E794;}
	.st200{fill:#FACB05;}
	.st201{fill:#FBCA05;}
	.st202{fill:#FCE685;}
	.st203{fill:#D7A406;}
	.st204{fill:#FBE686;}
	.st205{fill:#F8E794;}
	.st206{fill:#D6A408;}
	.st207{fill:#FBE586;}
	.st208{fill:#F9E48C;}
	.st209{fill:#F9E68C;}
	.st210{fill:#F9E78C;}
	.st211{fill:#FAE692;}
	.st212{fill:#F8E792;}
	.st213{fill:#F9E691;}
	.st214{fill:#FAE796;}
	.st215{fill:#F7CC0F;}
	.st216{fill:#F7CA0C;}
	.st217{fill:#F8CB0D;}
	.st218{fill:#F5C70E;}
	.st219{fill:#FAE47C;}
	.st220{fill:#D5A40A;}
	.st221{fill:#F6E282;}
	.st222{fill:#D6A506;}
	.st223{fill:#F7CB09;}
	.st224{fill:#F6EBC9;}
	.st225{fill:#F8E386;}
	.st226{fill:#F6CB16;}
	.st227{fill:#D2A20C;}
	.st228{fill:#F6D539;}
	.st229{fill:#F6C918;}
	.st230{fill:#FAE592;}
	.st231{fill:#FAF0CC;}
	.st232{fill:#FBE687;}
	.st233{fill:#FBF3C9;}
	.st234{fill:#F9E587;}
	.st235{fill:#F7ECC7;}
	.st236{fill:#CEAD5D;}
	.st237{fill:#D7B459;}
	.st238{fill:#D9B35A;}
	.st239{fill:#D7B24D;}
	.st240{fill:#3B0232;}
	.st241{fill:#4DA712;}
	.st242{fill:#1E7424;}
	.st243{fill:#432F15;}
	.st244{fill:#327934;}
	.st245{fill:#8C4066;}
	.st246{fill:#650032;}
	.st247{fill:#630233;}
	.st248{fill:#773F64;}
	.st249{fill:#A06786;}
	.st250{fill:#A37A97;}
	.st251{fill:#974E75;}
	.st252{fill:#610434;}
	.st253{fill:#BD9DB2;}
	.st254{fill:#AAE584;}
	.st255{fill:#E8EAE4;}
	.st256{fill:#8FCD62;}
	.st257{fill:#7D2751;}
	.st258{fill:#9D5C7D;}
	.st259{fill:#4A0133;}
	.st260{fill:#FADA56;}
	.st261{fill:#E9A414;}
	.st262{fill:#F9ECB2;}
	.st263{fill:#C8380D;}
	.st264{fill:#4BA612;}
	.st265{fill:#29792C;}
	.st266{fill:#49270F;}
	.st267{fill:#406C5A;}
	.st268{fill:#FDB28B;}
	.st269{fill:#FABE9F;}
	.st270{fill:#FB9966;}
	.st271{fill:#DE5826;}
	.st272{fill:#EF936E;}
	.st273{fill:#F9BC9C;}
	.st274{fill:#EB713F;}
	.st275{fill:#EA6E3C;}
	.st276{fill:#F48552;}
	.st277{fill:#F99869;}
	.st278{fill:#99D66C;}
	.st279{fill:#AFEA8D;}
	.st280{fill:#FE9966;}
	.st281{fill:#EB703E;}
	.st282{fill:#FDD9C6;}
	.st283{fill:#4C3797;}
	.st284{fill:#840223;}
	.st285{fill:#B72C4B;}
	.st286{fill:#B7476C;}
	.st287{fill:#68C937;}
	.st288{fill:#67C834;}
	.st289{fill:#92D57C;}
	.st290{fill:#41230E;}
	.st291{fill:#93E36E;}
	.st292{fill:#98FE67;}
	.st293{fill:#B3F394;}
	.st294{fill:#A7FC7B;}
	.st295{fill:#60AE63;}
	.st296{fill:#45A43E;}
	.st297{fill:#167033;}
	.st298{fill:#E3EFD5;}
	.st299{fill:#5EAE6A;}
	.st300{fill:#B7F995;}
	.st301{fill:#2E8747;}
	.st302{fill:#89D657;}
	.st303{fill:#88D758;}
	.st304{fill:#83DE50;}
	.st305{fill:#C7FDAA;}
	.st306{fill:#398D0C;}
	.st307{fill:#66090B;}
	.st308{fill:#65090A;}
	.st309{fill:#33800D;}
	.st310{fill:#677F22;}
	.st311{fill:#554116;}
	.st312{fill:#BB5554;}
	.st313{fill:#94F314;}
	.st314{fill:#6DCF16;}
	.st315{fill:#7F0405;}
	.st316{fill:#B3524F;}
	.st317{fill:#B8514F;}
	.st318{fill:#C35854;}
	.st319{fill:#B32828;}
	.st320{fill:#BE827C;}
	.st321{fill:#C8817F;}
	.st322{fill:#7F0305;}
	.st323{fill:#B85453;}
	.st324{fill:#B5292B;}
	.st325{fill:#54B922;}
	.st326{fill:#329703;}
	.st327{fill:#990000;}
	.st328{fill:#990001;}
	.st329{fill:#FC262D;}
	.st330{fill:#FD7D81;}
	.st331{fill:#FC6067;}
	.st332{fill:#076737;}
	.st333{fill:#FD9193;}
	.st334{fill:#4B7B13;}
	.st335{fill:#A0DD79;}
	.st336{fill:#FB383E;}
	.st337{fill:#94EB5C;}
	.st338{fill:#E45D3A;}
	.st339{fill:#81D34A;}
	.st340{fill:#307A10;}
	.st341{fill:#C69A4A;}
	.st342{fill:#E43844;}
	.st343{fill:#D0B675;}
	.st344{fill:#E4352E;}
	.st345{fill:#F07D6E;}
	.st346{fill:#4E1211;}
	.st347{fill:#825C58;}
	.st348{fill:#5E2015;}
	.st349{fill:#43120B;}
	.st350{fill:#4C0D0E;}
	.st351{fill:#350602;}
	.st352{fill:#4B0B0C;}
	.st353{fill:#7A4030;}
	.st354{fill:#6E4343;}
	.st355{fill:#581918;}
	.st356{fill:#EC826E;}
	.st357{fill:#8F5A54;}
	.st358{fill:#835853;}
	.st359{fill:#7D5551;}
	.st360{fill:#74AC4D;}
	.st361{fill:#6E9B2E;}
	.st362{fill:#B2EF88;}
	.st363{fill:#94C450;}
	.st364{fill:#BF9346;}
	.st365{fill:#6EB046;}
	.st366{fill:#D35738;}
	.st367{fill:#C4793F;}
	.st368{fill:#ED866F;}
	.st369{fill:#652A1B;}
	.st370{fill:#662F23;}
	.st371{fill:#6E5252;}
	.st372{fill:#934B3C;}
	.st373{fill:#DEA377;}
	.st374{fill:#866662;}
	.st375{fill:#D4B57A;}
	.st376{fill:#E27C1D;}
	.st377{fill:#EF6C12;}
	.st378{fill:#F76809;}
	.st379{fill:#22B707;}
	.st380{fill:#FD9800;}
	.st381{fill:#ECA465;}
	.st382{fill:#D56B2A;}
	.st383{fill:#EAA35C;}
	.st384{fill:#FCB951;}
	.st385{fill:#FCBA55;}
	.st386{fill:#FCCE86;}
	.st387{fill:#F79D0C;}
	.st388{fill:#0F6734;}
	.st389{fill:#F89C0C;}
	.st390{fill:#492914;}
	.st391{fill:#F3A113;}
	.st392{fill:#E7B960;}
	.st393{fill:#FECB00;}
	.st394{fill:#FCD01A;}
	.st395{fill:#E67504;}
	.st396{fill:#F8D775;}
	.st397{fill:#F7DF60;}
	.st398{fill:#FBD949;}
	.st399{fill:#E1A212;}
	.st400{fill:#F9C84C;}
	.st401{fill:#90D482;}
	.st402{fill:#3E9555;}
	.st403{fill:#429857;}
	.st404{fill:#78BC6A;}
	.st405{fill:#3B8B40;}
	.st406{fill:#F1F2EA;}
	.st407{fill:#FDD951;}
	.st408{fill:#FAD570;}
	.st409{fill:#FEB501;}
	.st410{fill:#FCDA4A;}
	.st411{fill:#FCE78D;}
	.st412{fill:#C1C10C;}
	.st413{fill:#C0C01A;}
	.st414{fill:#C3BF0F;}
	.st415{fill:#C8C619;}
	.st416{fill:#CAC647;}
	.st417{fill:#DFDA08;}
	.st418{fill:#FDFD03;}
	.st419{fill:#FEFEB4;}
	.st420{fill:#EAEF12;}
	.st421{fill:#F2EF9D;}
	.st422{fill:#F2EFA0;}
	.st423{fill:#F7F828;}
	.st424{fill:#F9FA34;}
	.st425{fill:#FBF957;}
	.st426{fill:#FAFB55;}
	.st427{fill:#F8CB14;}
	.st428{fill:#31A210;}
	.st429{fill:#970809;}
	.st430{fill:#55A83B;}
	.st431{fill:#6ACC48;}
	.st432{fill:#63C63E;}
	.st433{fill:#71C943;}
	.st434{fill:#5EC752;}
	.st435{fill:#72CF3E;}
	.st436{fill:#C51D1D;}
	.st437{fill:#B72325;}
	.st438{fill:#A92A2B;}
	.st439{fill:#F78485;}
	.st440{fill:#7D1D1E;}
	.st441{fill:#E87865;}
	.st442{fill:#7B1D1B;}
	.st443{fill:#D8543F;}
	.st444{fill:#E97D42;}
	.st445{fill:#E3683A;}
	.st446{fill:#D86D30;}
	.st447{fill:#E0733D;}
	.st448{fill:#F1844E;}
	.st449{fill:#DB1112;}
	.st450{fill:#E87239;}
	.st451{fill:#EE7B41;}
	.st452{fill:#E77F40;}
	.st453{fill:#E2753D;}
	.st454{fill:#E88244;}
	.st455{fill:#E77341;}
	.st456{fill:#E97C39;}
	.st457{fill:#E77744;}
	.st458{fill:#EC7F41;}
	.st459{fill:#F48441;}
	.st460{fill:#ED7543;}
	.st461{fill:#EE7B37;}
	.st462{fill:#F07A3E;}
	.st463{fill:#E9773E;}
	.st464{fill:#E67D45;}
	.st465{fill:#E77B44;}
	.st466{fill:#E97646;}
	.st467{fill:#EA7745;}
	.st468{fill:#EF7E3E;}
	.st469{fill:#EB814A;}
	.st470{fill:#EC7D47;}
	.st471{fill:#EB7841;}
	.st472{fill:#EA7545;}
	.st473{fill:#EB7345;}
	.st474{fill:#EA7445;}
	.st475{fill:#F17F44;}
	.st476{fill:#E38546;}
	.st477{fill:#E97D45;}
	.st478{fill:#E78540;}
	.st479{fill:#EA7D40;}
	.st480{fill:#DE613B;}
	.st481{fill:#D25F36;}
	.st482{fill:#D76535;}
	.st483{fill:#DA622D;}
	.st484{fill:#BF5518;}
	.st485{fill:#E48046;}
	.st486{fill:#F2784B;}
	.st487{fill:#ED8641;}
	.st488{fill:#E4753F;}
	.st489{fill:#C77893;}
	.st490{fill:#E9B785;}
	.st491{fill:#0C8E74;}
	.st492{fill:#EBBB89;}
	.st493{fill:#444442;}
	.st494{fill:#028A70;}
	.st495{fill:#CC9870;}
	.st496{fill:#AC7857;}
	.st497{fill:#343433;}
	.st498{fill:#432719;}
	.st499{fill:#C6946B;}
	.st500{fill:#EDCBA8;}
	.st501{fill:#EECDAB;}
	.st502{fill:#CB9970;}
	.st503{fill:#EFC79E;}
	.st504{fill:#412617;}
	.st505{fill:#705547;}
	.st506{fill:#6F5548;}
	.st507{fill:#442A1B;}
	.st508{fill:#E0B58B;}
	.st509{fill:#C69E7D;}
	.st510{fill:#442F22;}
	.st511{fill:#422617;}
	.st512{fill:#CD996E;}
	.st513{fill:#03896F;}
	.st514{fill:#04AB87;}
	.st515{fill:#EDC59D;}
	.st516{fill:#323331;}
	.st517{fill:#EFCCA8;}
	.st518{fill:#D7A577;}
	.st519{fill:#715548;}
	.st520{fill:#EBC09A;}
	.st521{fill:#E9B787;}
	.st522{fill:#6A6B69;}
	.st523{fill:#24AC8E;}
	.st524{fill:#14AC8D;}
	.st525{fill:#CBA27F;}
	.st526{fill:#6A6A69;}
	.st527{fill:#BCBCBC;}
	.st528{fill:#EDC296;}
	.st529{fill:#C7936A;}
	.st530{fill:#8B6045;}
	.st531{fill:#412515;}
	.st532{fill:#EFC7A0;}
	.st533{fill:#ECC398;}
	.st534{fill:#EFC8A1;}
	.st535{fill:#BD8861;}
	.st536{fill:#EFC59B;}
	.st537{fill:#190F0C;}
	.st538{fill:#C28E63;}
	.st539{fill:#BF8A62;}
	.st540{fill:#9B663E;}
	.st541{fill:#98663B;}
	.st542{fill:#F3F1EA;}
	.st543{fill:#0BAD8D;}
	.st544{fill:#0DAE8D;}
	.st545{fill:#3ABFA6;}
	.st546{fill:#434341;}
	.st547{fill:#365A55;}
	.st548{fill:#43C2AB;}
	.st549{fill:#10AC8D;}
	.st550{fill:#40C3AC;}
	.st551{fill:#3FC0A7;}
	.st552{fill:#1BAC8D;}
	.st553{fill:#42C2AB;}
	.st554{fill:#464A46;}
	.st555{fill:#F0CCA8;}
	.st556{fill:#81807E;}
	.st557{fill:#C59976;}
	.st558{fill:#CB9A6F;}
	.st559{fill:#55514D;}
	.st560{fill:#696967;}
	.st561{fill:#393937;}
	.st562{fill:#CB9770;}
	.st563{fill:#CB976F;}
	.st564{fill:#C79269;}
	.st565{fill:#EFCEAC;}
	.st566{fill:#E8BB8F;}
	.st567{fill:#464543;}
	.st568{fill:#EBBD91;}
	.st569{fill:#B27D5D;}
	.st570{fill:#C89674;}
	.st571{fill:#AF7754;}
	.st572{fill:#04AA88;}
	.st573{fill:#E9B885;}
	.st574{fill:#6D5343;}
	.st575{fill:#E7C09E;}
	.st576{fill:#5F3E26;}
	.st577{fill:#CB9871;}
	.st578{fill:#694B3A;}
	.st579{fill:#3EC0A8;}
	.st580{fill:#986238;}
	.st581{fill:#3FBFA6;}
	.st582{fill:#43C3AA;}
	.st583{fill:#0F0908;}
	.st584{fill:#F7F6F3;}
	.st585{fill:#EFC39D;}
	.st586{fill:#42342C;}
	.st587{fill:#D8D7D9;}
	.st588{fill:#383837;}
	.st589{fill:#767775;}
	.st590{fill:#313130;}
	.st591{fill:#555557;}
	.st592{fill:#565655;}
	.st593{fill:#EFCDAA;}
	.st594{fill:#E8E5E3;}
	.st595{fill:#F8E1AB;}
	.st596{fill:url(#SVGID_12_);}
	.st597{fill:url(#SVGID_13_);}
	.st598{fill:url(#SVGID_14_);}
	.st599{fill:url(#SVGID_15_);}
</style>
<g>
	<path class="st142" d="M64.8,59.1c-1.2,1.9-3.1,2.8-5.1,3.5c-2.2,0.8-4.5,1.2-6.8,1.2c-1.2-0.3-2.5,0-3.7-0.3c-3.2-0.7-6-2.2-9-3.5
		c-0.6-0.8-1.6-1.2-2.3-2c-3.2-2.3-6.5-4.4-9.4-7.1c-5.7-5.3-10.1-11.3-12.3-18.8c-0.7-2.5-0.8-5.1-1.7-7.5c0-1.6,0-3.1,0-4.7
		c0.9-2.7,2.2-5.2,4-7.5c0.2-0.3,0.4-0.6,0.7-0.8c2.1-1.2,2.3-3.3,2.7-5.4C22,5.6,21.7,4.5,23,4.4c2.2-0.2,2.7,0,3.3,1.7
		c0.2,0.6,0.6,1.3-0.3,1.7c-1-0.3-0.8-1.7-1.7-2c-0.5-0.1-1,0-1.1,0.7c-0.1,1.1-0.8,2.2-0.6,3.4c0.1,0.8-0.3,1.4-1,1.9
		c-1.1,0.7-2.1,1.7-2.6,3c-1,1.5-1.8,3.1-2.3,4.8c-0.7,2.4-0.6,4.8-0.1,7.3c0.5,2.4,1.1,4.7,1.8,7c0.5,1.4,1.2,2.7,1.8,4
		c2.4,4.9,5.9,9,10,12.6c2.9,2.5,5.9,4.9,9.3,6.7c2.9,1.6,5.9,3.2,9.1,4.2c4.4,1.3,8.8,1.2,12.9-1c0.8-0.4,1.1-1.2,1.7-1.8
		C63.7,58.6,64.1,59.2,64.8,59.1z"/>
	<path class="st143" d="M25.7,7.6c1-0.2,0.4-1.1,0.6-1.6c0.5,0.4,0.6,0.9,0.4,1.4c-1.3,3.7-0.5,7.3,0.5,11c1.3,4.4,2.9,8.7,5.2,12.7
		c4.5,8.2,11.2,14,19.6,18c3.3,1.5,6.7,2.7,9.8,4.6c1,0.6,1.8,1.3,2.6,2c0,0.5,0.7,1.1-0.3,1.4c-0.7,0-0.9-0.7-1.3-1
		c-2.9-1.6-5.8-3.3-8.9-4.6c-4.4-1.9-8.7-4.1-12.3-7.3c-1.1-1-2.5-1.7-3.4-2.9c-2.5-3-5.1-5.9-7-9.4c-2.2-4.1-3.9-8.3-5.3-12.7
		c-0.1-0.4-0.1-0.7-0.1-1.1c0-0.8-0.2-1.6-0.4-2.4c-0.2-1-0.7-2-0.6-3c-0.1-0.7-0.2-1.3,0.1-2c0.5-0.6,0.3-1.4,0.4-2.1
		C25.3,8.3,25.3,7.9,25.7,7.6z"/>
	<path class="st144" d="M64.2,57.1c0.6-0.3-0.2-0.9,0.2-1.2c1.1,1,1.4,2,0.3,3.2c-0.6,0.2-1.6,1.3-1.4-0.5
		C63.4,57.9,63.4,57.2,64.2,57.1z"/>
	<path class="st145" d="M64.2,57.1c-0.7,0.2-0.1,1.2-0.8,1.5c-0.9,2.3-3.1,2.8-5.1,3.4c-1.5,0.5-3.1,1-4.8,0.7
		c-2.4-0.4-4.7-0.8-7-1.5c-4.6-1.5-8.8-4.1-12.5-7c-3.8-2.9-7.4-6.1-10.4-10c-2.1-2.8-3.8-5.9-5.3-9.1c-0.8-1.6-1.1-3.4-1.6-5.1
		c-0.7-2.8-1.4-5.6-1-8.5c0.3-2.5,1-4.9,2.9-6.7c0.7-1,1.8-1.5,2.8-2.1c0.9-0.5,1.4-1.1,1.5-2.1c0.2-1.2,0.7-2.4,0.6-3.7
		c0-0.7,0.4-1.1,0.9-1.4c0.9,0.5,1.1,1.4,1.2,2.3c0,0.4,0,0.7,0,1.1c-0.7,0.6,0.1,1.5-0.5,2.1c0,0.7-0.2,1.4,0.2,2
		c-0.8,0.5-1.7,0.9-1.9,2c-0.6,1.2-0.1,2.5-0.3,3.8c0,0.8-0.1,1.6,0.4,2.4c0.9,2.9,1.8,5.8,2.9,8.6c1.8,4,4.3,7.7,7.2,11
		c1.3,1.5,2.8,2.8,4.2,4.1c1.4,1.5,3,2.7,4.8,3.6c1.4,1.2,3.2,1.9,4.7,2.9c1.7,1.2,3.8,1.5,5.8,2.2c0.5,0.2,0.8,0,1.1-0.4
		c1.5,0.1,2.8,0.8,4.1,1.3c0.6,0.2,1.1,0.8,0.7,1.5c-0.3,0.7-0.9,0.3-1.4,0.1c-0.6-0.1-1.2-0.4-1.8-0.5c1.7,1,3.6,1.3,5.5,1.7
		c0.7,0.1,1-0.9,1.7-1.1C63.8,56.1,63.6,57.1,64.2,57.1z"/>
	<path class="st146" d="M24.5,5.3C24,6,23.8,6.8,23.9,7.6c0.2,1.3-0.5,2.5-0.7,3.8C22.9,12.9,21.1,13,20,14
		c-0.3,0.3-0.8,0.6-1.4,0.7c0.1-1.8,1.7-2.4,2.8-3.4c0.3-0.2,0.7-0.2,0.7-0.7c0-1.2,0.3-2.4,0.5-3.6C22.8,5.4,23.3,5.1,24.5,5.3z"/>
	<path class="st147" d="M63.1,56.1c-0.6,1.1-1.1,2-2.7,1.3c-1.5-0.6-3.1-0.7-4.6-1.3c-0.3-0.1-0.9-0.2-0.8-0.7
		c0.1-0.6,0.8-0.5,1.1-0.3c0.6,0.3,1.3,0.5,2,0.7c0.3,0.1,0.6,0.6,0.8,0.1c0.2-0.4-0.1-0.7-0.4-1c-0.7-0.6-1.7-0.6-2.5-0.9
		c-0.5-0.2-1.1-0.6-1.7-0.7c-1.2,0.5-2.3-0.2-3.2-0.7c-1-0.6-2-1-3.2-1.3c-1.7-0.8-3.2-2.1-4.9-2.9c-1.7-1-3.3-2.3-4.7-3.7
		c-1.5-0.8-2.5-2.2-3.6-3.5c-1.7-1.9-3.3-3.9-4.7-6.1c-1.3-2-2.7-4-3.6-6.3c-1.2-2.5-2.3-5-2.8-7.8c0.2-1.3,0.9-1.8,2.6-1.6
		c0.9,1.3,1.1,2.9,1.6,4.4c0.5,1.7,1.5,3.1,2,4.7c1,2.8,2.5,5.3,4.2,7.5c1.8,2.5,3.8,5,6.2,7c4.1,3.4,8.7,6.2,13.6,8.3
		c3,1.2,5.7,3,8.7,4.3C62.9,55.7,63.1,55.8,63.1,56.1z"/>
	<path class="st148" d="M22.8,18.7c0-1,0-2,0-3.1c0-0.4-0.1-0.9,0.5-1.1c0.4,1.1,1.1,1.8,2.4,1.2c0.4,0.7,0.5,1.5,0.5,2.3
		c-0.9,0.6-2,0.4-2.9,1.1C22.9,19.6,23,18.9,22.8,18.7z"/>
	<path class="st149" d="M25.7,15.8c-0.4,1.1-1.3,0.7-1.9,0.5c-0.9-0.2-0.3-1.1-0.5-1.7c0.1-1.3,0.9-1.7,2.1-1.7
		C24.9,13.9,25.9,14.8,25.7,15.8z"/>
	<path class="st150" d="M22.8,18.7c0.2,0.1,0.3,0.6,0.5,0.3c0.8-1.1,1.9-0.8,2.9-0.9c0,0.4,0,0.8,0,1.2c-0.6,0.1-1,0.6-1.7,0.6
		c-0.8-0.1-0.6,0.7-0.7,1.2c-0.2,0.2-0.4,0.1-0.6,0C22.2,20.5,23,19.5,22.8,18.7z"/>
	<path class="st142" d="M25.1,10.9c0-0.7-0.1-1.4,0-2.1c0.1-0.6,0.3,0.1,0.5,0C25.5,9.5,26.1,10.4,25.1,10.9z"/>
	<path class="st151" d="M57.6,59.6c-2.6,0-5.2,0.3-7.7-0.1c-2.5-0.4-5.1-1-7.5-2.1c-3.7-1.7-7.2-3.7-10.3-6.3
		c-2.9-2.5-5.6-5.1-7.8-8.2c-1.4-2-2.6-4.2-3.8-6.3c-1.4-2.4-1.8-5-2.5-7.6c-0.8-2.9-0.6-5.7,0-8.6c0.2-1.1-0.1-2.3,0.6-3.4
		c0.2-0.3,0.2-0.8,0.6-0.7c0.5,0.1,0.4,0.7,0.3,1c-0.6,2.2,0.1,4.3,0.3,6.5c0.2,3,1.4,5.7,2.4,8.3c2.1,5.6,5.6,10.5,9.7,14.8
		c4.1,4.3,9,7.4,14.5,9.6c3.6,1.4,7.4,2.1,11.2,2.7C57.6,59.4,57.6,59.5,57.6,59.6z"/>
	<path class="st152" d="M26.8,28.7c0.8,2.1,2.1,3.9,3.3,5.7c2,3.1,4.4,5.9,6.8,8.6c0.5,0.6,1.3,0.7,1.7,1.5c0.2,1-0.4,0.7-0.9,0.6
		c-4.9-3.9-8.2-8.9-11.2-14.2c-0.2-0.3-0.2-0.6-0.2-1C25.9,28.8,26,28.7,26.8,28.7z"/>
	<path class="st153" d="M47.9,50.9c1.2-0.1,2.2,0.4,3,1c1,0.7,2.2,1,3.4,1.3c0.1,0.7-0.2,0.9-0.9,0.7c-2-0.6-4-1-5.8-2
		c-0.1-0.1-0.2-0.3-0.3-0.5C47.3,51.2,47.6,51,47.9,50.9z"/>
	<path class="st154" d="M37.6,45.1c0.4-0.1,0.9,0,0.9-0.6c1.6,1.2,3.1,2.3,4.7,3.5c0.3,0.7-0.1,0.7-0.6,0.6
		C40.5,47.9,39.1,46.5,37.6,45.1z"/>
	<path class="st155" d="M26.8,28.7c-0.8,0.1-0.4,0.7-0.5,1.1C25,28,24.6,25.8,24,23.7c-0.3-0.8-0.8-1.7-0.6-2.7c0.2,0,0.4,0,0.6,0
		C24.5,23.8,25.7,26.2,26.8,28.7z"/>
	<path class="st156" d="M42.5,48.6c0.3-0.1,0.6-0.2,0.6-0.6c1.7,0.7,3.2,1.9,4.7,2.9c-0.1,0.3-0.3,0.5-0.6,0.6
		C45.6,50.7,43.8,50.1,42.5,48.6z"/>
</g>
</svg>
