<svg id="Layer_1" data-name="Layer 1" xmlns="http://www.w3.org/2000/svg" viewBox="0 0 754.63 374.48"><defs><style>.cls-1{fill:#fff;opacity:0.3;isolation:isolate;}</style></defs><title>Artboard 1 copy 3</title><path class="cls-1" d="M696.4,172.23a54.67,54.67,0,0,0-39.83,17.19,91.23,91.23,0,0,0-133.26-49.18,91.18,91.18,0,0,0-83.72-55h-2.32A141.78,141.78,0,0,0,176,90.18,91.42,91.42,0,0,0,61.49,142.85c-.73,0-1.45-.08-2.18-.08A59,59,0,1,0,92.76,250.36a90.73,90.73,0,0,0,53.61,17.41,92,92,0,0,0,30.18-5.08,53.09,53.09,0,0,0-2.11,14.94A54.73,54.73,0,0,0,270.13,314a91.23,91.23,0,0,0,164,14.15,54.72,54.72,0,0,0,88.72-31.42A91.32,91.32,0,0,0,652.08,259a54.75,54.75,0,0,0,99.24-31.92A55.1,55.1,0,0,0,696.4,172.23Z"/></svg>