<svg id="Layer_1" data-name="Layer 1" xmlns="http://www.w3.org/2000/svg" viewBox="0 0 581.34 288.49"><defs><style>.cls-1{fill:#fff;opacity:0.3;isolation:isolate;}</style></defs><title>Artboard 1 copy 5</title><path class="cls-1" d="M531.56,131.68a41.72,41.72,0,0,0-30.4,13.12,69.63,69.63,0,0,0-101.7-37.53,69.59,69.59,0,0,0-63.89-42h-1.78a108.2,108.2,0,0,0-199.36,3.76A69.78,69.78,0,0,0,47,109.26c-.56,0-1.11-.06-1.66-.06a45,45,0,1,0,25.52,82.11,69.23,69.23,0,0,0,40.91,13.29,70.27,70.27,0,0,0,23-3.88,40.64,40.64,0,0,0-1.6,11.41,41.76,41.76,0,0,0,73,27.73,69.62,69.62,0,0,0,125.18,10.8,41.76,41.76,0,0,0,67.71-24,69.72,69.72,0,0,0,98.61-28.79,41.81,41.81,0,1,0,33.83-66.22Z"/></svg>