<svg id="Layer_1" data-name="Layer 1" xmlns="http://www.w3.org/2000/svg" viewBox="0 0 1036.68 514.44"><defs><style>.cls-1{fill:#fff;opacity:0.3;isolation:isolate;}</style></defs><title>Artboard 1 copy</title><path class="cls-1" d="M959.83,237a75.33,75.33,0,0,0-54.9,23.7,125.79,125.79,0,0,0-183.7-67.8,125.7,125.7,0,0,0-115.4-75.8h-3.2a195.45,195.45,0,0,0-360.1,6.8,126,126,0,0,0-157.9,72.6c-1,0-2-.1-3-.1a81.3,81.3,0,1,0,46.1,148.3,125.07,125.07,0,0,0,73.9,24,127,127,0,0,0,41.6-7,73.25,73.25,0,0,0-2.9,20.6,75.44,75.44,0,0,0,131.9,50.1,125.75,125.75,0,0,0,226.1,19.5,75.42,75.42,0,0,0,122.3-43.3,125.89,125.89,0,0,0,178.1-52,75.46,75.46,0,0,0,136.8-44C1035.23,270.82,1001.43,237,959.83,237Z"/></svg>