<svg id="Layer_1" data-name="Layer 1" xmlns="http://www.w3.org/2000/svg" viewBox="0 0 866.63 430.06"><defs><style>.cls-1{fill:#fff;opacity:0.3;isolation:isolate;}</style></defs><title>Artboard 1 copy 2</title><path class="cls-1" d="M799.66,197.62a62.74,62.74,0,0,0-45.74,19.75,104.78,104.78,0,0,0-153-56.48,104.72,104.72,0,0,0-96.14-63.15h-2.66a162.82,162.82,0,0,0-300,5.66A105,105,0,0,0,70.56,163.89c-.83,0-1.66-.09-2.5-.09a67.73,67.73,0,1,0,38.41,123.54,104.18,104.18,0,0,0,61.56,20,105.69,105.69,0,0,0,34.65-5.83,61.08,61.08,0,0,0-2.41,17.16A62.85,62.85,0,0,0,310.15,360.4,104.75,104.75,0,0,0,498.5,376.65a62.84,62.84,0,0,0,101.89-36.07,104.88,104.88,0,0,0,148.37-43.32,62.87,62.87,0,0,0,114-36.66C862.47,225.78,834.31,197.62,799.66,197.62Z"/></svg>