<svg id="Layer_1" data-name="Layer 1" xmlns="http://www.w3.org/2000/svg" viewBox="0 0 660.11 327.57"><defs><style>.cls-1{fill:#fff;opacity:0.3;isolation:isolate;}</style></defs><title>Artboard 1 copy 4</title><path class="cls-1" d="M611.23,151.28a48,48,0,0,0-35,15.09,80.09,80.09,0,0,0-117-43.17,80,80,0,0,0-73.47-48.26h-2a124.43,124.43,0,0,0-229.26,4.33A80.22,80.22,0,0,0,54,125.49c-.64,0-1.28-.06-1.91-.06a51.76,51.76,0,1,0,29.35,94.42,79.66,79.66,0,0,0,47.05,15.28A80.68,80.68,0,0,0,155,230.67a46.63,46.63,0,0,0-1.84,13.12,48,48,0,0,0,84,31.89,80.07,80.07,0,0,0,144,12.42,48,48,0,0,0,77.86-27.57,80.14,80.14,0,0,0,113.39-33.11,48.07,48.07,0,1,0,38.91-76.14Z"/></svg>