<svg id="Layer_1" data-name="Layer 1" xmlns="http://www.w3.org/2000/svg" viewBox="0 0 445.46 221.06"><defs><style>.cls-1{fill:#fff;opacity:0.3;isolation:isolate;}</style></defs><title>Artboard 1 copy 6</title><path class="cls-1" d="M400.22,99.38a31.38,31.38,0,0,0-22.88,9.88A52.42,52.42,0,0,0,300.78,81a52.38,52.38,0,0,0-48.09-31.59h-1.34a81.45,81.45,0,0,0-150.07,2.83A52.53,52.53,0,0,0,35.47,82.5c-.42,0-.84,0-1.25,0a33.88,33.88,0,1,0,19.21,61.8,52.1,52.1,0,0,0,30.8,10,52.85,52.85,0,0,0,17.34-2.92,30.58,30.58,0,0,0-1.21,8.59,31.44,31.44,0,0,0,55,20.88,52.41,52.41,0,0,0,94.23,8.12,31.43,31.43,0,0,0,51-18,52.48,52.48,0,0,0,74.23-21.68,31.47,31.47,0,1,0,25.46-49.84Z"/></svg>