<svg id="Group_893" data-name="Group 893" xmlns="http://www.w3.org/2000/svg" xmlns:xlink="http://www.w3.org/1999/xlink" viewBox="-2876 8672.067 1378.195 1712.839">
  <defs>
    <style>
      .cls-1 {
        fill: none;
      }

      .cls-2 {
        fill: url(#radial-gradient);
      }

      .cls-3 {
        clip-path: url(#clip-path);
      }

      .cls-4, .cls-6 {
        fill: #fff;
      }

      .cls-4 {
        opacity: 0.3;
      }

      .cls-5 {
        clip-path: url(#clip-path-8);
      }

      .cls-7 {
        fill: url(#linear-gradient);
      }
    </style>
    <radialGradient id="radial-gradient" cx="682.625" cy="1535.346" r="958.541" gradientTransform="translate(-163.067 -1410.123) scale(1.239 1.918)" gradientUnits="userSpaceOnUse">
      <stop offset="0" stop-color="#fff"/>
      <stop offset="0.091" stop-color="#fff"/>
      <stop offset="0.181" stop-color="#fafdfe"/>
      <stop offset="0.28" stop-color="#edf8fd"/>
      <stop offset="0.384" stop-color="#d7eff9"/>
      <stop offset="0.491" stop-color="#b8e3f5"/>
      <stop offset="0.601" stop-color="#90d3f0"/>
      <stop offset="0.712" stop-color="#5fc0e9"/>
      <stop offset="0.823" stop-color="#27aae1"/>
      <stop offset="1" stop-color="#27aae1"/>
    </radialGradient>
    <clipPath id="clip-path">
      <rect id="Rectangle_125" data-name="Rectangle 125" width="1377.725" height="1102.159"/>
    </clipPath>
    <clipPath id="clip-path-8">
      <rect class="cls-1" width="582.684" height="547.821"/>
    </clipPath>
    <linearGradient id="linear-gradient" x1="0.279" y1="1.658" x2="0.279" y2="0.658" gradientUnits="objectBoundingBox">
      <stop offset="0.378" stop-color="#fff"/>
      <stop offset="0.823" stop-color="#fff" stop-opacity="0"/>
    </linearGradient>
  </defs>
  <rect id="Rectangle_124" data-name="Rectangle 124" class="cls-2" width="1377.725" height="1706.839" transform="translate(-2876 8678.067)"/>
  <g id="Group_585" data-name="Group 585" class="cls-3" transform="translate(-2876 8672.067)">
    <path id="Path_996" data-name="Path 996" class="cls-4" d="M1667.329,621.668a80.457,80.457,0,0,0-58.638,25.314,134.349,134.349,0,0,0-196.208-72.416A134.259,134.259,0,0,0,1289.227,493.6h-3.418a208.665,208.665,0,0,0-190.76-124c-87.9,0-163.1,54.366-193.858,131.268A134.579,134.579,0,0,0,732.54,578.411c-1.068,0-2.136-.107-3.2-.107a86.835,86.835,0,1,0,49.239,158.4,133.586,133.586,0,0,0,78.932,25.634,136.106,136.106,0,0,0,44.432-7.477,78.236,78.236,0,0,0-3.1,22,80.58,80.58,0,0,0,140.881,53.511A134.312,134.312,0,0,0,1281.216,851.2a80.559,80.559,0,0,0,130.627-46.248,134.458,134.458,0,0,0,190.226-55.54,80.6,80.6,0,0,0,146.114-47C1747.863,657.77,1711.762,621.668,1667.329,621.668Z" transform="translate(-609.282 -119.988)"/>
  </g>
  <g id="Group_586" data-name="Group 586" class="cls-3" transform="translate(-2876 8672.067)">
    <path id="Path_997" data-name="Path 997" class="cls-4" d="M1024.936,252.068A80.457,80.457,0,0,0,966.3,277.382,134.349,134.349,0,0,0,770.09,204.966,134.259,134.259,0,0,0,646.833,124h-3.418C610.839,50.948,537.675,0,452.548,0c-87.9,0-163.1,54.366-193.858,131.268A134.579,134.579,0,0,0,90.04,208.811c-1.068,0-2.136-.107-3.2-.107a86.835,86.835,0,1,0,49.239,158.4,133.585,133.585,0,0,0,78.932,25.634,135.627,135.627,0,0,0,44.432-7.477,78.234,78.234,0,0,0-3.1,22,80.58,80.58,0,0,0,140.881,53.511A134.312,134.312,0,0,0,638.716,481.6a80.559,80.559,0,0,0,130.627-46.248,134.458,134.458,0,0,0,190.226-55.541,80.647,80.647,0,1,0,65.367-127.743Z" transform="translate(-653.028 -145.153)"/>
  </g>
  <g id="Group_587" data-name="Group 587" class="cls-3" transform="translate(-2876 8672.067)">
    <path id="Path_998" data-name="Path 998" class="cls-4" d="M1382.454,317.112a22.259,22.259,0,0,0-16.128,6.943,36.933,36.933,0,0,0-53.938-19.866,36.778,36.778,0,0,0-33.858-22.216h-.961A57.394,57.394,0,0,0,1171.828,284a37.156,37.156,0,0,0-12.069-2.029,36.735,36.735,0,0,0-34.286,23.284h-.854a23.818,23.818,0,1,0,0,47.637,24.525,24.525,0,0,0,13.565-4.166,37.044,37.044,0,0,0,21.682,7.049,38.306,38.306,0,0,0,12.176-2.029,22.653,22.653,0,0,0-.855,6.088,22.1,22.1,0,0,0,38.665,14.633,36.9,36.9,0,0,0,66.328,5.768,22.142,22.142,0,0,0,35.888-12.71,36.513,36.513,0,0,0,19.119,5.34,36.919,36.919,0,0,0,33.111-20.614,22.062,22.062,0,0,0,40.053-12.817A21.755,21.755,0,0,0,1382.454,317.112Z" transform="translate(-578.078 -128.274)"/>
  </g>
  <g id="Group_588" data-name="Group 588" class="cls-3" transform="translate(-2876 8672.067)">
    <path id="Path_999" data-name="Path 999" class="cls-4" d="M1597.255,595.712a22.258,22.258,0,0,0-16.128,6.943,36.933,36.933,0,0,0-53.938-19.866,36.778,36.778,0,0,0-33.858-22.216h-.961a57.394,57.394,0,0,0-105.741,2.029,37.155,37.155,0,0,0-12.069-2.029,36.735,36.735,0,0,0-34.286,23.284h-.854a23.818,23.818,0,1,0,0,47.637,24.525,24.525,0,0,0,13.565-4.166,37.044,37.044,0,0,0,21.682,7.049,38.3,38.3,0,0,0,12.176-2.029,22.654,22.654,0,0,0-.854,6.088,22.1,22.1,0,0,0,38.665,14.633,36.9,36.9,0,0,0,66.328,5.768,22.142,22.142,0,0,0,35.888-12.71,36.514,36.514,0,0,0,19.119,5.34,36.919,36.919,0,0,0,33.111-20.614,22.113,22.113,0,0,0,40.053-12.924A21.861,21.861,0,0,0,1597.255,595.712Z" transform="translate(-563.453 -109.305)"/>
  </g>
  <g id="Group_589" data-name="Group 589" class="cls-3" transform="translate(-2876 8672.067)">
    <path id="Path_1000" data-name="Path 1000" class="cls-4" d="M852.354,615.012a22.258,22.258,0,0,0-16.128,6.943,36.933,36.933,0,0,0-53.938-19.866,36.778,36.778,0,0,0-33.858-22.216h-.961A57.394,57.394,0,0,0,641.728,581.9a37.156,37.156,0,0,0-12.069-2.029,36.735,36.735,0,0,0-34.286,23.284h-.854a23.818,23.818,0,0,0,0,47.637,24.525,24.525,0,0,0,13.565-4.166,37.044,37.044,0,0,0,21.682,7.049,38.3,38.3,0,0,0,12.176-2.029,22.654,22.654,0,0,0-.854,6.088,22.1,22.1,0,0,0,38.665,14.633,36.9,36.9,0,0,0,66.328,5.768,22.142,22.142,0,0,0,35.888-12.71,36.514,36.514,0,0,0,19.119,5.34A36.919,36.919,0,0,0,834.2,650.152a22.062,22.062,0,0,0,40.053-12.817A21.82,21.82,0,0,0,852.354,615.012Z" transform="translate(-614.171 -107.991)"/>
  </g>
  <g id="Group_590" data-name="Group 590" class="cls-3" transform="translate(-2876 8672.067)">
    <path id="Path_1001" data-name="Path 1001" class="cls-4" d="M1721.054,117.812a22.258,22.258,0,0,0-16.128,6.943,36.933,36.933,0,0,0-53.938-19.866,36.778,36.778,0,0,0-33.858-22.216h-.961A57.394,57.394,0,0,0,1510.428,84.7a37.156,37.156,0,0,0-12.069-2.029,36.735,36.735,0,0,0-34.286,23.284h-.855a23.818,23.818,0,1,0,0,47.637,24.526,24.526,0,0,0,13.565-4.166,37.044,37.044,0,0,0,21.682,7.049,38.3,38.3,0,0,0,12.176-2.029,22.653,22.653,0,0,0-.854,6.088,22.1,22.1,0,0,0,38.665,14.633,36.9,36.9,0,0,0,66.328,5.768,22.142,22.142,0,0,0,35.888-12.71,36.513,36.513,0,0,0,19.119,5.34,36.919,36.919,0,0,0,33.111-20.614,22.062,22.062,0,0,0,40.053-12.817A21.82,21.82,0,0,0,1721.054,117.812Z" transform="translate(-555.024 -141.844)"/>
  </g>
  <g id="Group_591" data-name="Group 591" class="cls-3" transform="translate(-2876 8672.067)">
    <path id="Path_1002" data-name="Path 1002" class="cls-4" d="M2049.954,655.712a22.258,22.258,0,0,0-16.128,6.943,36.933,36.933,0,0,0-53.938-19.866,36.778,36.778,0,0,0-33.858-22.216h-.961a57.394,57.394,0,0,0-105.741,2.029,37.157,37.157,0,0,0-12.069-2.029,36.735,36.735,0,0,0-34.286,23.284h-.854a23.818,23.818,0,1,0,0,47.637,24.525,24.525,0,0,0,13.565-4.166,37.044,37.044,0,0,0,21.682,7.049,38.3,38.3,0,0,0,12.176-2.029,22.654,22.654,0,0,0-.855,6.088,22.1,22.1,0,0,0,38.665,14.633,36.9,36.9,0,0,0,66.328,5.768,22.142,22.142,0,0,0,35.888-12.71,36.514,36.514,0,0,0,19.119,5.34,36.919,36.919,0,0,0,33.111-20.614,22.062,22.062,0,0,0,40.053-12.817A21.756,21.756,0,0,0,2049.954,655.712Z" transform="translate(-532.63 -105.22)"/>
  </g>
  <g id="Repeat_Grid_13" data-name="Repeat Grid 13" class="cls-5" transform="translate(-2080.489 8678)">
    <g transform="translate(2080.489 -8591)">
      <path id="Path_1003" data-name="Path 1003" class="cls-4" d="M2381.243,312.068a80.456,80.456,0,0,0-58.638,25.314A134.349,134.349,0,0,0,2126.4,264.966,134.259,134.259,0,0,0,2003.14,184h-3.418A209.085,209.085,0,0,0,1808.748,60c-87.9,0-163.1,54.366-193.858,131.268a134.579,134.579,0,0,0-168.651,77.543c-1.068,0-2.136-.107-3.2-.107a86.835,86.835,0,1,0,49.239,158.4,133.585,133.585,0,0,0,78.932,25.634,135.628,135.628,0,0,0,44.432-7.477,78.232,78.232,0,0,0-3.1,22,80.58,80.58,0,0,0,140.881,53.511A134.312,134.312,0,0,0,1994.916,541.6a80.559,80.559,0,0,0,130.627-46.248,134.458,134.458,0,0,0,190.226-55.541,80.647,80.647,0,1,0,65.474-127.743Z" transform="translate(-3436.689 8531)"/>
    </g>
  </g>
  <path id="Path_1004" data-name="Path 1004" class="cls-6" d="M1396.3,427.7l.854,1.175v-.427Z" transform="translate(-3433.958 8556.035)"/>
  <rect id="Rectangle_132" data-name="Rectangle 132" class="cls-7" width="1372.385" height="500.143" transform="translate(-2876 9884.416)"/>
</svg>
