<?xml version="1.0" encoding="utf-8"?>
<!-- Generator: Adobe Illustrator 22.1.0, SVG Export Plug-In . SVG Version: 6.00 Build 0)  -->
<svg version="1.1" xmlns="http://www.w3.org/2000/svg" xmlns:xlink="http://www.w3.org/1999/xlink" x="0px" y="0px"
	 viewBox="0 0 1280 1227.8" style="enable-background:new 0 0 1280 1227.8;" xml:space="preserve">
<style type="text/css">
	.st0{fill:#F1972E;}
	.st1{fill:#F8E1AB;}
	.st2{opacity:0.8;}
	.st3{fill:#F2D9AD;stroke:#FFFFFF;stroke-miterlimit:10;}
	.st4{fill:#F8E1AB;stroke:#FFFFFF;stroke-miterlimit:10;}
	.st5{fill:url(#SVGID_1_);}
	.st6{opacity:0.3;fill:#256936;}
	.st7{fill:url(#SVGID_2_);}
	.st8{opacity:0.6;fill:#256936;}
	.st9{opacity:0.2;fill:#D7DF23;}
	.st10{fill:url(#SVGID_3_);}
	.st11{opacity:0.4;fill:#256936;}
	.st12{fill:#35BC4B;}
	.st13{opacity:0.8;fill:#F2D9AD;}
	.st14{fill:url(#SVGID_4_);}
	.st15{opacity:0.3;clip-path:url(#SVGID_6_);fill:#FFFFFF;}
	.st16{opacity:0.3;}
	.st17{opacity:0.3;fill:#FFFFFF;}
	.st18{fill:#5CA120;}
	.st19{fill:#287E27;}
	.st20{fill:#0F6522;}
	.st21{fill:url(#SVGID_9_);}
	.st22{opacity:0.4;fill:#AF5E24;}
	.st23{fill:#EE8F32;}
	.st24{opacity:0.6;fill:#AF5E24;}
	.st25{fill:#914308;}
	.st26{fill:#7A3400;}
	.st27{fill:url(#SVGID_10_);}
	.st28{fill:url(#SVGID_11_);}
	.st29{fill:url(#SVGID_12_);}
	.st30{fill:url(#SVGID_13_);}
	.st31{fill:url(#SVGID_14_);}
	.st32{fill:url(#SVGID_15_);}
	.st33{fill:url(#SVGID_16_);}
	.st34{fill:url(#SVGID_17_);}
	.st35{fill:url(#SVGID_18_);}
	.st36{fill:url(#SVGID_19_);}
	.st37{fill:url(#SVGID_20_);}
	.st38{fill:url(#SVGID_21_);}
	.st39{fill:url(#SVGID_22_);}
	.st40{fill:url(#SVGID_23_);}
	.st41{fill:url(#SVGID_24_);}
	.st42{fill:url(#SVGID_25_);}
	.st43{fill:url(#SVGID_26_);}
	.st44{fill:url(#SVGID_27_);}
	.st45{fill:url(#SVGID_28_);}
	.st46{fill:url(#SVGID_29_);}
	.st47{fill:url(#SVGID_30_);}
	.st48{fill:url(#SVGID_31_);}
	.st49{fill:url(#SVGID_32_);}
	.st50{fill:url(#SVGID_33_);}
	.st51{fill:url(#SVGID_34_);}
	.st52{fill:url(#SVGID_35_);}
	.st53{fill:url(#SVGID_36_);}
	.st54{fill:url(#SVGID_37_);}
	.st55{fill:url(#SVGID_38_);}
	.st56{fill:url(#SVGID_39_);}
	.st57{fill:url(#SVGID_40_);}
	.st58{fill:url(#SVGID_41_);}
	.st59{fill:#DD7624;}
	.st60{fill:#AF5E24;}
	.st61{fill:#F99635;}
	.st62{fill:#4E6D7C;}
	.st63{fill:#CEC5AC;}
	.st64{fill:url(#SVGID_42_);}
	.st65{fill:url(#SVGID_43_);}
	.st66{fill:url(#SVGID_44_);}
	.st67{fill:url(#SVGID_45_);}
	.st68{fill:url(#SVGID_46_);}
	.st69{fill:url(#SVGID_47_);}
	.st70{fill:url(#SVGID_48_);}
	.st71{fill:url(#SVGID_49_);}
	.st72{fill:url(#SVGID_50_);}
	.st73{fill:url(#SVGID_51_);}
	.st74{fill:url(#SVGID_52_);}
	.st75{fill:url(#SVGID_53_);}
	.st76{fill:url(#SVGID_54_);}
	.st77{fill:url(#SVGID_55_);}
	.st78{fill:url(#SVGID_56_);}
	.st79{fill:url(#SVGID_57_);}
	.st80{fill:url(#SVGID_58_);}
	.st81{fill:url(#SVGID_59_);}
	.st82{fill:url(#SVGID_60_);}
	.st83{fill:url(#SVGID_61_);}
	.st84{fill:url(#SVGID_62_);}
	.st85{fill:url(#SVGID_63_);}
	.st86{fill:url(#SVGID_64_);}
	.st87{fill:url(#SVGID_65_);}
	.st88{fill:url(#SVGID_66_);}
	.st89{fill:url(#SVGID_67_);}
	.st90{fill:url(#SVGID_68_);}
	.st91{fill:url(#SVGID_69_);}
	.st92{fill:url(#SVGID_70_);}
	.st93{fill:url(#SVGID_71_);}
	.st94{fill:url(#SVGID_72_);}
	.st95{fill:url(#SVGID_73_);}
	.st96{fill:url(#SVGID_74_);}
	.st97{fill:url(#SVGID_75_);}
	.st98{fill:url(#SVGID_76_);}
	.st99{fill:url(#SVGID_77_);}
	.st100{fill:url(#SVGID_78_);}
	.st101{fill:#8CC63F;}
	.st102{fill:#51A346;}
	.st103{fill:#258A31;}
	.st104{fill:#FFFFFF;}
	.st105{fill:#F8E1AB;stroke:#FFFFFF;stroke-linecap:round;stroke-linejoin:round;stroke-miterlimit:10;}
	.st106{fill:url(#SVGID_79_);}
	.st107{fill:#F2D9AD;}
	.st108{fill:#CEB386;}
	.st109{fill:url(#SVGID_80_);}
	.st110{fill:url(#SVGID_81_);}
	.st111{fill:#4E9920;}
	.st112{fill:#B10842;}
	.st113{fill:#F0A510;}
	.st114{fill:#26600E;}
	.st115{fill:#13063D;}
	.st116{fill:#265908;}
	.st117{fill:#632812;}
	.st118{fill:#E0E0E0;}
	.st119{fill:#39690A;}
	.st120{fill:#E5E5E5;}
	.st121{fill:#E6E6E6;}
	.st122{fill:#257840;}
	.st123{fill:#572A11;}
	.st124{fill:#E8E7E8;}
	.st125{fill:#E7E8E7;}
	.st126{fill:#377009;}
	.st127{fill:#63B166;}
	.st128{fill:#EAEAE9;}
	.st129{fill:#CDD2D4;}
	.st130{fill:#B04E72;}
	.st131{fill:#647F53;}
	.st132{fill:#86213B;}
	.st133{fill:#446B2D;}
	.st134{fill:#A22350;}
	.st135{fill:#933254;}
	.st136{fill:#456A34;}
	.st137{fill:#7E3439;}
	.st138{fill:#375B1F;}
	.st139{fill:#D1D0D1;}
	.st140{fill:#D25177;}
	.st141{fill:#E5E4E4;}
	.st142{fill:#D6527B;}
	.st143{fill:#893541;}
	.st144{fill:#CC4169;}
	.st145{fill:#BE3661;}
	.st146{fill:#862D3A;}
	.st147{fill:#761D25;}
	.st148{fill:#C83263;}
	.st149{fill:#D84977;}
	.st150{fill:#FBDA56;}
	.st151{fill:#EDB349;}
	.st152{fill:#FBE89C;}
	.st153{fill:#EDAA14;}
	.st154{fill:#FACA08;}
	.st155{fill:#FADB56;}
	.st156{fill:#F9CB0E;}
	.st157{fill:#F8CB0F;}
	.st158{fill:#FACA10;}
	.st159{fill:#BDAF9B;}
	.st160{fill:#F9E16C;}
	.st161{fill:#F6E37C;}
	.st162{fill:#247C20;}
	.st163{fill:#439011;}
	.st164{fill:#74AF50;}
	.st165{fill:#C7CAC5;}
	.st166{fill:#A8CB8E;}
	.st167{fill:#9DC885;}
	.st168{fill:#341D88;}
	.st169{fill:#211257;}
	.st170{fill:#D2D1D1;}
	.st171{fill:#8374B8;}
	.st172{fill:#659D43;}
	.st173{fill:#262F35;}
	.st174{fill:#980034;}
	.st175{fill:#B75172;}
	.st176{fill:#9E1443;}
	.st177{fill:#CECDCE;}
	.st178{fill:#C8657C;}
	.st179{fill:#BDBEBD;}
	.st180{fill:#5A1024;}
	.st181{fill:#BA5072;}
	.st182{fill:#A5556A;}
	.st183{fill:#A8A5A6;}
	.st184{fill:#C68594;}
	.st185{fill:#C78597;}
	.st186{fill:#649833;}
	.st187{fill:#8DB165;}
	.st188{fill:#659832;}
	.st189{fill:#669730;}
	.st190{fill:#84AD5D;}
	.st191{fill:#649832;}
	.st192{fill:#5B0263;}
	.st193{fill:#E5E5E4;}
	.st194{fill:#348306;}
	.st195{fill:#49074D;}
	.st196{fill:#4D0653;}
	.st197{fill:#460D4B;}
	.st198{fill:#43230F;}
	.st199{fill:#42134D;}
	.st200{fill:#43164A;}
	.st201{fill:#975297;}
	.st202{fill:#975299;}
	.st203{fill:#965297;}
	.st204{fill:#975198;}
	.st205{fill:#975296;}
	.st206{fill:#975196;}
	.st207{fill:#975197;}
	.st208{fill:#965298;}
	.st209{fill:#49034D;}
	.st210{fill:#965197;}
	.st211{fill:#945298;}
	.st212{fill:#944B99;}
	.st213{fill:#9B55A1;}
	.st214{fill:#A264B1;}
	.st215{fill:#C5C4C5;}
	.st216{fill:#F8F7F6;}
	.st217{fill:#96529B;}
	.st218{fill:#9760A9;}
	.st219{fill:#9DE087;}
	.st220{fill:#70BE70;}
	.st221{fill:#EAEDE5;}
	.st222{fill:#84072A;}
	.st223{fill:#E57D1A;}
	.st224{fill:#438605;}
	.st225{fill:#E7E7E7;}
	.st226{fill:#F26A12;}
	.st227{fill:#CE6816;}
	.st228{fill:#B8D691;}
	.st229{fill:#FC9902;}
	.st230{fill:#F9E4BD;}
	.st231{fill:#F9AD49;}
	.st232{fill:#CBCBCA;}
	.st233{fill:#FABC5C;}
	.st234{fill:#F9BB5C;}
	.st235{fill:#B1AEAE;}
	.st236{fill:#FBE892;}
	.st237{fill:#5EA138;}
	.st238{fill:#F6B448;}
	.st239{fill:#F6B24D;}
	.st240{fill:#E6E6E5;}
	.st241{fill:#9E763B;}
	.st242{fill:#F0DC0A;}
	.st243{fill:#CCCCCC;}
	.st244{fill:#F5C013;}
	.st245{fill:#ECE506;}
	.st246{fill:#F5F28D;}
	.st247{fill:#FAF7DA;}
	.st248{fill:#F0E948;}
	.st249{fill:#F5C407;}
	.st250{fill:#F8F8DF;}
	.st251{fill:#F0EC46;}
	.st252{fill:#F6F3A1;}
	.st253{fill:#F7F2A2;}
	.st254{fill:#F4EE73;}
	.st255{fill:#1D023B;}
	.st256{fill:#336C03;}
	.st257{fill:#E2E1E3;}
	.st258{fill:#2F0B59;}
	.st259{fill:#320263;}
	.st260{fill:#322349;}
	.st261{fill:#300262;}
	.st262{fill:#5F477E;}
	.st263{fill:#1A7E2B;}
	.st264{fill:#330365;}
	.st265{fill:#320364;}
	.st266{fill:#330465;}
	.st267{fill:#320363;}
	.st268{fill:#2E055B;}
	.st269{fill:#654587;}
	.st270{fill:#67448C;}
	.st271{fill:#2E0360;}
	.st272{fill:#C2BFC3;}
	.st273{fill:#5C3C7D;}
	.st274{fill:#5D3681;}
	.st275{fill:#338707;}
	.st276{fill:#5E407E;}
	.st277{fill:#8971A8;}
	.st278{fill:#8B6FAC;}
	.st279{fill:#8C6BA8;}
	.st280{fill:#316808;}
	.st281{fill:#A57C52;}
	.st282{fill:#E3E3E2;}
	.st283{fill:#A78C66;}
	.st284{fill:#347A02;}
	.st285{fill:#339505;}
	.st286{fill:#339704;}
	.st287{fill:#359505;}
	.st288{fill:#ABD596;}
	.st289{fill:#A9D194;}
	.st290{fill:#9FD589;}
	.st291{fill:#D7C2A7;}
	.st292{fill:#A57730;}
	.st293{fill:#FCCB05;}
	.st294{fill:#FCCB04;}
	.st295{fill:#D8A504;}
	.st296{fill:#D8A505;}
	.st297{fill:#FBCB05;}
	.st298{fill:#D8A506;}
	.st299{fill:#FACC07;}
	.st300{fill:#F9E794;}
	.st301{fill:#FACB05;}
	.st302{fill:#FBCA05;}
	.st303{fill:#FCE685;}
	.st304{fill:#D7A406;}
	.st305{fill:#FBE686;}
	.st306{fill:#F8E794;}
	.st307{fill:#D6A408;}
	.st308{fill:#FBE586;}
	.st309{fill:#F9E48C;}
	.st310{fill:#F9E68C;}
	.st311{fill:#F9E78C;}
	.st312{fill:#FAE692;}
	.st313{fill:#F8E792;}
	.st314{fill:#F9E691;}
	.st315{fill:#FAE796;}
	.st316{fill:#F7CC0F;}
	.st317{fill:#F7CA0C;}
	.st318{fill:#F8CB0D;}
	.st319{fill:#F5C70E;}
	.st320{fill:#FAE47C;}
	.st321{fill:#D5A40A;}
	.st322{fill:#F6E282;}
	.st323{fill:#D6A506;}
	.st324{fill:#F7CB09;}
	.st325{fill:#F6EBC9;}
	.st326{fill:#F8E386;}
	.st327{fill:#F6CB16;}
	.st328{fill:#D2A20C;}
	.st329{fill:#F6D539;}
	.st330{fill:#F6C918;}
	.st331{fill:#FAE592;}
	.st332{fill:#FAF0CC;}
	.st333{fill:#FBE687;}
	.st334{fill:#FBF3C9;}
	.st335{fill:#F9E587;}
	.st336{fill:#F7ECC7;}
	.st337{fill:#CEAD5D;}
	.st338{fill:#D7B459;}
	.st339{fill:#D9B35A;}
	.st340{fill:#D7B24D;}
	.st341{fill:#3B0232;}
	.st342{fill:#4DA712;}
	.st343{fill:#1E7424;}
	.st344{fill:#432F15;}
	.st345{fill:#327934;}
	.st346{fill:#8C4066;}
	.st347{fill:#650032;}
	.st348{fill:#630233;}
	.st349{fill:#D0CFD0;}
	.st350{fill:#773F64;}
	.st351{fill:#A06786;}
	.st352{fill:#A37A97;}
	.st353{fill:#974E75;}
	.st354{fill:#610434;}
	.st355{fill:#BD9DB2;}
	.st356{fill:#AAE584;}
	.st357{fill:#E8EAE4;}
	.st358{fill:#8FCD62;}
	.st359{fill:#7D2751;}
	.st360{fill:#9D5C7D;}
	.st361{fill:#4A0133;}
	.st362{fill:#FADA56;}
	.st363{fill:#E9A414;}
	.st364{fill:#F9ECB2;}
	.st365{fill:#C8380D;}
	.st366{fill:#E1E1E1;}
	.st367{fill:#4BA612;}
	.st368{fill:#29792C;}
	.st369{fill:#49270F;}
	.st370{fill:#406C5A;}
	.st371{fill:#FDB28B;}
	.st372{fill:#FABE9F;}
	.st373{fill:#FB9966;}
	.st374{fill:#DE5826;}
	.st375{fill:#EF936E;}
	.st376{fill:#F9BC9C;}
	.st377{fill:#EB713F;}
	.st378{fill:#EA6E3C;}
	.st379{fill:#CBCDCA;}
	.st380{fill:#F48552;}
	.st381{fill:#F99869;}
	.st382{fill:#99D66C;}
	.st383{fill:#AFEA8D;}
	.st384{fill:#FE9966;}
	.st385{fill:#EB703E;}
	.st386{fill:#FDD9C6;}
	.st387{fill:#4C3797;}
	.st388{fill:#840223;}
	.st389{fill:#B72C4B;}
	.st390{fill:#B7476C;}
	.st391{fill:#E3E3E3;}
	.st392{fill:#68C937;}
	.st393{fill:#67C834;}
	.st394{fill:#92D57C;}
	.st395{fill:#41230E;}
	.st396{fill:#93E36E;}
	.st397{fill:#98FE67;}
	.st398{fill:#B3F394;}
	.st399{fill:#A7FC7B;}
	.st400{fill:#60AE63;}
	.st401{fill:#45A43E;}
	.st402{fill:#167033;}
	.st403{fill:#E3EFD5;}
	.st404{fill:#5EAE6A;}
	.st405{fill:#B7F995;}
	.st406{fill:#2E8747;}
	.st407{fill:#89D657;}
	.st408{fill:#88D758;}
	.st409{fill:#83DE50;}
	.st410{fill:#C7FDAA;}
	.st411{fill:#398D0C;}
	.st412{fill:#66090B;}
	.st413{fill:#65090A;}
	.st414{fill:#33800D;}
	.st415{fill:#677F22;}
	.st416{fill:#554116;}
	.st417{fill:#C9C7C7;}
	.st418{fill:#BB5554;}
	.st419{fill:#94F314;}
	.st420{fill:#6DCF16;}
	.st421{fill:#7F0405;}
	.st422{fill:#AEAEAD;}
	.st423{fill:#B3524F;}
	.st424{fill:#B8514F;}
	.st425{fill:#DCDAD9;}
	.st426{fill:#C35854;}
	.st427{fill:#B32828;}
	.st428{fill:#BE827C;}
	.st429{fill:#C8817F;}
	.st430{fill:#7F0305;}
	.st431{fill:#B85453;}
	.st432{fill:#B5292B;}
	.st433{fill:#54B922;}
	.st434{fill:#329703;}
	.st435{fill:#990000;}
	.st436{fill:#990001;}
	.st437{fill:#FC262D;}
	.st438{fill:#FD7D81;}
	.st439{fill:#FC6067;}
	.st440{fill:#076737;}
	.st441{fill:#FD9193;}
	.st442{fill:#E8E8E8;}
	.st443{fill:#4B7B13;}
	.st444{fill:#A0DD79;}
	.st445{fill:#FB383E;}
	.st446{fill:#94EB5C;}
	.st447{fill:#E45D3A;}
	.st448{fill:#81D34A;}
	.st449{fill:#307A10;}
	.st450{fill:#C69A4A;}
	.st451{fill:#E43844;}
	.st452{fill:#D0B675;}
	.st453{fill:#E4352E;}
	.st454{fill:#F07D6E;}
	.st455{fill:#4E1211;}
	.st456{fill:#825C58;}
	.st457{fill:#5E2015;}
	.st458{fill:#43120B;}
	.st459{fill:#4C0D0E;}
	.st460{fill:#350602;}
	.st461{fill:#4B0B0C;}
	.st462{fill:#7A4030;}
	.st463{fill:#6E4343;}
	.st464{fill:#581918;}
	.st465{fill:#EC826E;}
	.st466{fill:#8F5A54;}
	.st467{fill:#835853;}
	.st468{fill:#7D5551;}
	.st469{fill:#74AC4D;}
	.st470{fill:#6E9B2E;}
	.st471{fill:#B2EF88;}
	.st472{fill:#94C450;}
	.st473{fill:#BF9346;}
	.st474{fill:#6EB046;}
	.st475{fill:#D35738;}
	.st476{fill:#C4793F;}
	.st477{fill:#ED866F;}
	.st478{fill:#652A1B;}
	.st479{fill:#662F23;}
	.st480{fill:#6E5252;}
	.st481{fill:#934B3C;}
	.st482{fill:#DEA377;}
	.st483{fill:#866662;}
	.st484{fill:#D4B57A;}
	.st485{fill:#E27C1D;}
	.st486{fill:#EF6C12;}
	.st487{fill:#F76809;}
	.st488{fill:#22B707;}
	.st489{fill:#FD9800;}
	.st490{fill:#ECA465;}
	.st491{fill:#D56B2A;}
	.st492{fill:#CFCFCF;}
	.st493{fill:#B3B1AC;}
	.st494{fill:#EAA35C;}
	.st495{fill:#FCB951;}
	.st496{fill:#FCBA55;}
	.st497{fill:#FCCE86;}
	.st498{fill:#F79D0C;}
	.st499{fill:#0F6734;}
	.st500{fill:#F89C0C;}
	.st501{fill:#492914;}
	.st502{fill:#F3A113;}
	.st503{fill:#E7B960;}
	.st504{fill:#CFCFCE;}
	.st505{fill:#FECB00;}
	.st506{fill:#FCD01A;}
	.st507{fill:#E67504;}
	.st508{fill:#F8D775;}
	.st509{fill:#F7DF60;}
	.st510{fill:#FBD949;}
	.st511{fill:#E1A212;}
	.st512{fill:#F9C84C;}
	.st513{fill:#90D482;}
	.st514{fill:#3E9555;}
	.st515{fill:#429857;}
	.st516{fill:#78BC6A;}
	.st517{fill:#3B8B40;}
	.st518{fill:#F1F2EA;}
	.st519{fill:#FDD951;}
	.st520{fill:#FAD570;}
	.st521{fill:#FEB501;}
	.st522{fill:#FCDA4A;}
	.st523{fill:#FCE78D;}
	.st524{fill:#E4E4E4;}
	.st525{fill:#C1C10C;}
	.st526{fill:#C0C01A;}
	.st527{fill:#C3BF0F;}
	.st528{fill:#C8C619;}
	.st529{fill:#CAC647;}
	.st530{fill:#CACACA;}
	.st531{fill:#DFDA08;}
	.st532{fill:#FDFD03;}
	.st533{fill:#FEFEB4;}
	.st534{fill:#EAEF12;}
	.st535{fill:#F2EF9D;}
	.st536{fill:#F2EFA0;}
	.st537{fill:#F7F828;}
	.st538{fill:#F9FA34;}
	.st539{fill:#FBF957;}
	.st540{fill:#FAFB55;}
	.st541{fill:#F8CB14;}
	.st542{fill:#31A210;}
	.st543{fill:#970809;}
	.st544{fill:#E6E7E7;}
	.st545{fill:#55A83B;}
	.st546{fill:#6ACC48;}
	.st547{fill:#63C63E;}
	.st548{fill:#71C943;}
	.st549{fill:#5EC752;}
	.st550{fill:#72CF3E;}
	.st551{fill:#C51D1D;}
	.st552{fill:#B72325;}
	.st553{fill:#A92A2B;}
	.st554{fill:#F78485;}
	.st555{fill:#D2D2D2;}
	.st556{fill:#7D1D1E;}
	.st557{fill:#BEB9B8;}
	.st558{fill:#E87865;}
	.st559{fill:#7B1D1B;}
	.st560{fill:#D8543F;}
	.st561{fill:#E97D42;}
	.st562{fill:#E3683A;}
	.st563{fill:#D86D30;}
	.st564{fill:#E0733D;}
	.st565{fill:#F1844E;}
	.st566{fill:#DB1112;}
	.st567{fill:#E87239;}
	.st568{fill:#EE7B41;}
	.st569{fill:#E77F40;}
	.st570{fill:#E2753D;}
	.st571{fill:#E88244;}
	.st572{fill:#E77341;}
	.st573{fill:#E97C39;}
	.st574{fill:#E77744;}
	.st575{fill:#EC7F41;}
	.st576{fill:#F48441;}
	.st577{fill:#ED7543;}
	.st578{fill:#EE7B37;}
	.st579{fill:#F07A3E;}
	.st580{fill:#E9773E;}
	.st581{fill:#E67D45;}
	.st582{fill:#E77B44;}
	.st583{fill:#E97646;}
	.st584{fill:#EA7745;}
	.st585{fill:#EF7E3E;}
	.st586{fill:#EB814A;}
	.st587{fill:#EC7D47;}
	.st588{fill:#EB7841;}
	.st589{fill:#EA7545;}
	.st590{fill:#EB7345;}
	.st591{fill:#EA7445;}
	.st592{fill:#F17F44;}
	.st593{fill:#E38546;}
	.st594{fill:#E97D45;}
	.st595{fill:#E78540;}
	.st596{fill:#EA7D40;}
	.st597{fill:#DE613B;}
	.st598{fill:#D25F36;}
	.st599{fill:#D76535;}
	.st600{fill:#DA622D;}
	.st601{fill:#BF5518;}
	.st602{fill:#E48046;}
	.st603{fill:#F2784B;}
	.st604{fill:#ED8641;}
	.st605{fill:#E4753F;}
	.st606{fill:#C77893;}
	.st607{fill:#E9B785;}
	.st608{fill:#0C8E74;}
	.st609{fill:#EBBB89;}
	.st610{fill:#444442;}
	.st611{fill:#028A70;}
	.st612{fill:#CC9870;}
	.st613{fill:#AC7857;}
	.st614{fill:#343433;}
	.st615{fill:#432719;}
	.st616{fill:#C6946B;}
	.st617{fill:#EDCBA8;}
	.st618{fill:#EECDAB;}
	.st619{fill:#CB9970;}
	.st620{fill:#EFC79E;}
	.st621{fill:#412617;}
	.st622{fill:#705547;}
	.st623{fill:#6F5548;}
	.st624{fill:#442A1B;}
	.st625{fill:#E0B58B;}
	.st626{fill:#C69E7D;}
	.st627{fill:#442F22;}
	.st628{fill:#422617;}
	.st629{fill:#CD996E;}
	.st630{fill:#03896F;}
	.st631{fill:#04AB87;}
	.st632{fill:#EDC59D;}
	.st633{fill:#323331;}
	.st634{fill:#EFCCA8;}
	.st635{fill:#D7A577;}
	.st636{fill:#715548;}
	.st637{fill:#EBC09A;}
	.st638{fill:#E9B787;}
	.st639{fill:#6A6B69;}
	.st640{fill:#24AC8E;}
	.st641{fill:#14AC8D;}
	.st642{fill:#CBA27F;}
	.st643{fill:#6A6A69;}
	.st644{fill:#BCBCBC;}
	.st645{fill:#EDC296;}
	.st646{fill:#C7936A;}
	.st647{fill:#8B6045;}
	.st648{fill:#412515;}
	.st649{fill:#EFC7A0;}
	.st650{fill:#ECC398;}
	.st651{fill:#EFC8A1;}
	.st652{fill:#BD8861;}
	.st653{fill:#EFC59B;}
	.st654{fill:#190F0C;}
	.st655{fill:#C28E63;}
	.st656{fill:#BF8A62;}
	.st657{fill:#9B663E;}
	.st658{fill:#98663B;}
	.st659{fill:#F3F1EA;}
	.st660{fill:#0BAD8D;}
	.st661{fill:#0DAE8D;}
	.st662{fill:#3ABFA6;}
	.st663{fill:#434341;}
	.st664{fill:#365A55;}
	.st665{fill:#43C2AB;}
	.st666{fill:#10AC8D;}
	.st667{fill:#40C3AC;}
	.st668{fill:#3FC0A7;}
	.st669{fill:#1BAC8D;}
	.st670{fill:#42C2AB;}
	.st671{fill:#464A46;}
	.st672{fill:#F0CCA8;}
	.st673{fill:#81807E;}
	.st674{fill:#C59976;}
	.st675{fill:#CB9A6F;}
	.st676{fill:#55514D;}
	.st677{fill:#696967;}
	.st678{fill:#393937;}
	.st679{fill:#CB9770;}
	.st680{fill:#CB976F;}
	.st681{fill:#C79269;}
	.st682{fill:#EFCEAC;}
	.st683{fill:#E8BB8F;}
	.st684{fill:#464543;}
	.st685{fill:#EBBD91;}
	.st686{fill:#B27D5D;}
	.st687{fill:#C89674;}
	.st688{fill:#AF7754;}
	.st689{fill:#04AA88;}
	.st690{fill:#E9B885;}
	.st691{fill:#6D5343;}
	.st692{fill:#E7C09E;}
	.st693{fill:#5F3E26;}
	.st694{fill:#CB9871;}
	.st695{fill:#694B3A;}
	.st696{fill:#3EC0A8;}
	.st697{fill:#986238;}
	.st698{fill:#3FBFA6;}
	.st699{fill:#43C3AA;}
	.st700{fill:#0F0908;}
	.st701{fill:#F7F6F3;}
	.st702{fill:#EFC39D;}
	.st703{fill:#42342C;}
	.st704{fill:#D8D7D9;}
	.st705{fill:#383837;}
	.st706{fill:#767775;}
	.st707{fill:#313130;}
	.st708{fill:#555557;}
	.st709{fill:#565655;}
	.st710{fill:#EFCDAA;}
	.st711{fill:#E8E5E3;}
	.st712{fill:url(#SVGID_82_);}
	.st713{fill:url(#SVGID_83_);}
	.st714{fill:url(#SVGID_84_);}
	.st715{fill:url(#SVGID_85_);}
	.st716{fill:#FD9900;}
	.st717{fill:#D81314;}
	.st718{fill:#D7DF23;}
	.st719{fill:#39B54A;}
	.st720{fill:#EE6A10;}
	.st721{fill:#F6BF17;}
	.st722{fill:#5E0165;}
	.st723{fill:#940708;}
	.st724{fill:url(#SVGID_86_);}
	.st725{fill:url(#SVGID_87_);}
	.st726{fill:url(#SVGID_88_);}
	.st727{fill:url(#SVGID_89_);}
	.st728{fill:url(#SVGID_90_);}
	.st729{fill:url(#SVGID_91_);}
	.st730{fill:url(#SVGID_92_);}
	.st731{fill:url(#SVGID_93_);}
	.st732{fill:url(#SVGID_94_);}
	.st733{fill:url(#SVGID_95_);}
	.st734{fill:url(#SVGID_96_);}
	.st735{fill:url(#SVGID_97_);}
	.st736{fill:url(#SVGID_98_);}
	.st737{fill:url(#SVGID_99_);}
	.st738{fill:url(#SVGID_100_);}
	.st739{fill:url(#SVGID_101_);}
	.st740{fill:url(#SVGID_102_);}
	.st741{fill:url(#SVGID_103_);}
	.st742{fill:url(#SVGID_104_);}
	.st743{fill:url(#SVGID_105_);}
	.st744{fill:url(#SVGID_106_);}
	.st745{fill:url(#SVGID_107_);}
	.st746{fill:url(#SVGID_108_);}
	.st747{fill:url(#SVGID_109_);}
	.st748{fill:url(#SVGID_110_);}
	.st749{fill:url(#SVGID_111_);}
	.st750{fill:url(#SVGID_112_);}
	.st751{fill:url(#SVGID_113_);}
	.st752{fill:url(#SVGID_114_);}
	.st753{fill:url(#SVGID_115_);}
	.st754{fill:url(#SVGID_116_);}
	.st755{fill:url(#SVGID_117_);}
	.st756{fill:url(#SVGID_118_);}
	.st757{fill:url(#SVGID_119_);}
	.st758{fill:url(#SVGID_120_);}
	.st759{fill:url(#SVGID_121_);}
	.st760{fill:url(#SVGID_122_);}
	.st761{fill:url(#SVGID_123_);}
	.st762{fill:url(#SVGID_124_);}
	.st763{fill:url(#SVGID_125_);}
	.st764{fill:url(#SVGID_126_);}
	.st765{fill:url(#SVGID_127_);}
	.st766{fill:url(#SVGID_128_);}
	.st767{fill:url(#SVGID_129_);}
	.st768{fill:url(#SVGID_130_);}
	.st769{fill:url(#SVGID_131_);}
	.st770{fill:url(#SVGID_132_);}
	.st771{fill:url(#SVGID_133_);}
	.st772{fill:url(#SVGID_134_);}
	.st773{fill:url(#SVGID_135_);}
	.st774{fill:url(#SVGID_136_);}
	.st775{fill:url(#SVGID_137_);}
	.st776{fill:url(#SVGID_138_);}
	.st777{fill:url(#SVGID_139_);}
	.st778{fill:url(#SVGID_140_);}
	.st779{fill:url(#SVGID_141_);}
	.st780{fill:url(#SVGID_142_);}
	.st781{fill:url(#SVGID_143_);}
	.st782{fill:url(#SVGID_144_);}
	.st783{fill:url(#SVGID_145_);}
	.st784{fill:#692901;}
	.st785{fill:url(#SVGID_146_);}
	.st786{fill:url(#SVGID_147_);}
	.st787{fill:url(#SVGID_148_);}
	.st788{fill:url(#SVGID_149_);}
	.st789{fill:url(#SVGID_150_);}
	.st790{fill:url(#SVGID_151_);}
	.st791{fill:url(#SVGID_152_);}
	.st792{fill:url(#SVGID_153_);}
	.st793{fill:url(#SVGID_154_);}
	.st794{fill:#CC6D2D;}
	.st795{fill:#9E5123;}
	.st796{opacity:0.5;fill:#914308;}
	.st797{opacity:0.4;fill:#E88D42;}
	.st798{fill:url(#SVGID_155_);}
	.st799{fill:url(#SVGID_156_);}
	.st800{fill:url(#SVGID_157_);}
	.st801{fill:url(#SVGID_158_);}
	.st802{fill:url(#SVGID_159_);}
	.st803{fill:url(#SVGID_160_);}
	.st804{fill:url(#SVGID_161_);}
	.st805{fill:url(#SVGID_162_);}
	.st806{fill:url(#SVGID_163_);}
	.st807{fill:url(#SVGID_164_);}
	.st808{fill:url(#SVGID_165_);}
	.st809{fill:url(#SVGID_166_);}
	.st810{fill:url(#SVGID_167_);}
	.st811{fill:url(#SVGID_168_);}
	.st812{fill:url(#SVGID_169_);}
	.st813{fill:url(#SVGID_170_);}
	.st814{fill:url(#SVGID_171_);}
	.st815{fill:url(#SVGID_172_);}
	.st816{fill:url(#SVGID_173_);}
	.st817{fill:url(#SVGID_174_);}
	.st818{opacity:0.6;fill:url(#SVGID_175_);}
	.st819{opacity:0.65;}
	.st820{fill:#FFFF7E;}
	.st821{opacity:0.5;}
	.st822{opacity:0;fill:#FEAA0F;}
	.st823{opacity:1.935500e-02;fill:#FEAC15;}
	.st824{opacity:3.871000e-02;fill:#FEAE1A;}
	.st825{opacity:5.806500e-02;fill:#FEB020;}
	.st826{opacity:7.741900e-02;fill:#FEB225;}
	.st827{opacity:9.677400e-02;fill:#FEB42B;}
	.st828{opacity:0.1161;fill:#FEB630;}
	.st829{opacity:0.1355;fill:#FEB836;}
	.st830{opacity:0.1548;fill:#FEBA3B;}
	.st831{opacity:0.1742;fill:#FEBC41;}
	.st832{opacity:0.1935;fill:#FEBE46;}
	.st833{opacity:0.2129;fill:#FEC04C;}
	.st834{opacity:0.2323;fill:#FEC251;}
	.st835{opacity:0.2516;fill:#FEC457;}
	.st836{opacity:0.271;fill:#FEC65C;}
	.st837{opacity:0.2903;fill:#FEC862;}
	.st838{opacity:0.3097;fill:#FFCA67;}
	.st839{opacity:0.329;fill:#FFCC6D;}
	.st840{opacity:0.3484;fill:#FFCE72;}
	.st841{opacity:0.3677;fill:#FFD078;}
	.st842{opacity:0.3871;fill:#FFD27D;}
	.st843{opacity:0.4065;fill:#FFD483;}
	.st844{opacity:0.4258;fill:#FFD688;}
	.st845{opacity:0.4452;fill:#FFD88E;}
	.st846{opacity:0.4645;fill:#FFDA93;}
	.st847{opacity:0.4839;fill:#FFDC99;}
	.st848{opacity:0.5032;fill:#FFDE9E;}
	.st849{opacity:0.5226;fill:#FFE0A4;}
	.st850{opacity:0.5419;fill:#FFE2A9;}
	.st851{opacity:0.5613;fill:#FFE4AF;}
	.st852{opacity:0.5806;fill:#FFE6B4;}
	.st853{opacity:0.6;fill:#FFE8BA;}
	.st854{fill:url(#SVGID_176_);}
	.st855{fill:url(#SVGID_177_);}
	.st856{fill:url(#SVGID_178_);}
	.st857{fill:url(#SVGID_179_);}
	.st858{fill:url(#SVGID_180_);}
	.st859{fill:url(#SVGID_181_);}
	.st860{opacity:0.65;fill:#914308;}
	.st861{fill:#8C1C20;}
	.st862{fill:url(#SVGID_182_);}
	.st863{fill:url(#SVGID_183_);}
	.st864{fill:#8E8700;}
	.st865{fill:#665D00;}
	.st866{fill:url(#SVGID_184_);}
	.st867{fill:url(#SVGID_185_);}
	.st868{fill:url(#SVGID_186_);}
	.st869{fill:url(#SVGID_187_);}
	.st870{fill:url(#SVGID_188_);}
	.st871{fill:url(#SVGID_189_);}
	.st872{fill:url(#SVGID_190_);}
	.st873{fill:url(#SVGID_191_);}
	.st874{fill:url(#SVGID_192_);}
	.st875{fill:url(#SVGID_193_);}
	.st876{fill:url(#SVGID_194_);}
	.st877{fill:url(#SVGID_195_);}
	.st878{fill:url(#SVGID_196_);}
	.st879{fill:url(#SVGID_197_);}
	.st880{fill:url(#SVGID_198_);}
	.st881{fill:url(#SVGID_199_);}
	.st882{fill:url(#SVGID_200_);}
	.st883{fill:url(#SVGID_201_);}
	.st884{fill:url(#SVGID_202_);}
	.st885{fill:url(#SVGID_203_);}
	.st886{fill:url(#SVGID_204_);}
	.st887{fill:url(#SVGID_205_);}
	.st888{fill:url(#SVGID_206_);}
	.st889{fill:url(#SVGID_207_);}
	.st890{fill:url(#SVGID_208_);}
	.st891{fill:#C9BB00;}
	.st892{fill:#9B8E00;}
	.st893{fill:#E5DE0A;}
	.st894{fill:#FFFDE6;}
	.st895{fill:url(#SVGID_209_);}
	.st896{fill:url(#SVGID_210_);}
	.st897{fill:url(#SVGID_211_);}
	.st898{fill:url(#SVGID_212_);}
	.st899{fill:url(#SVGID_213_);}
	.st900{fill:url(#SVGID_214_);}
	.st901{fill:url(#SVGID_215_);}
	.st902{fill:url(#SVGID_216_);}
	.st903{fill:url(#SVGID_217_);}
	.st904{fill:url(#SVGID_218_);}
	.st905{fill:url(#SVGID_219_);}
	.st906{fill:url(#SVGID_220_);}
	.st907{fill:url(#SVGID_221_);}
	.st908{fill:url(#SVGID_222_);}
	.st909{fill:url(#SVGID_223_);}
	.st910{fill:url(#SVGID_224_);}
	.st911{fill:url(#SVGID_225_);}
	.st912{fill:url(#SVGID_226_);}
	.st913{fill:url(#SVGID_227_);}
	.st914{fill:url(#SVGID_228_);}
	.st915{fill:url(#SVGID_229_);}
	.st916{fill:url(#SVGID_230_);}
	.st917{fill:url(#SVGID_231_);}
	.st918{fill:url(#SVGID_232_);}
	.st919{fill:url(#SVGID_233_);}
	.st920{fill:url(#SVGID_234_);}
	.st921{fill:url(#SVGID_235_);}
	.st922{fill:url(#SVGID_236_);}
	.st923{fill:url(#SVGID_237_);}
	.st924{fill:url(#SVGID_238_);}
	.st925{fill:url(#SVGID_239_);}
	.st926{fill:url(#SVGID_240_);}
	.st927{fill:url(#SVGID_241_);}
	.st928{fill:url(#SVGID_242_);}
	.st929{fill:url(#SVGID_243_);}
	.st930{fill:url(#SVGID_244_);}
	.st931{fill:url(#SVGID_245_);}
	.st932{fill:url(#SVGID_246_);}
	.st933{fill:url(#SVGID_247_);}
	.st934{fill:url(#SVGID_248_);}
	.st935{fill:url(#SVGID_249_);}
	.st936{fill:url(#SVGID_250_);}
	.st937{fill:url(#SVGID_251_);}
	.st938{fill:url(#SVGID_252_);}
	.st939{fill:url(#SVGID_253_);}
	.st940{fill:url(#SVGID_254_);}
	.st941{fill:url(#SVGID_255_);}
	.st942{fill:url(#SVGID_256_);}
	.st943{fill:url(#SVGID_257_);}
	.st944{fill:url(#SVGID_258_);}
	.st945{opacity:0.9;fill:#CEB386;}
	.st946{fill:#652A11;}
	.st947{fill:#1A602E;}
	.st948{fill:#692E12;}
	.st949{fill:#4A2210;}
	.st950{fill:#6EB86B;}
	.st951{fill:#CDCDCD;}
	.st952{fill:#7B0421;}
	.st953{fill:#B85173;}
	.st954{fill:#940431;}
	.st955{fill:#B8B8B7;}
	.st956{fill:#820524;}
	.st957{fill:#530B12;}
	.st958{fill:#761A18;}
	.st959{fill:#A55467;}
	.st960{fill:#C78694;}
	.st961{fill:#A69F9E;}
	.st962{fill:#F5F8F5;}
	.st963{fill:#9DDF89;}
	.st964{fill:#2A8449;}
	.st965{fill:#4BA05D;}
	.st966{fill:#6FBB6F;}
	.st967{fill:#51A45C;}
	.st968{fill:#CB687D;}
	.st969{fill:#89042A;}
	.st970{fill:#950230;}
	.st971{fill:#B32242;}
	.st972{fill:#9C0D3D;}
	.st973{fill:#BC4F75;}
	.st974{fill:#CB8596;}
	.st975{fill:#BD4B6A;}
	.st976{fill:#AF365F;}
	.st977{fill:#BE5B7C;}
	.st978{fill:#CB7C96;}
	.st979{fill:#EFA80F;}
	.st980{fill:#0E6630;}
	.st981{fill:#452610;}
	.st982{fill:#F2D299;}
	.st983{fill:#EEC480;}
	.st984{fill:#FDCC00;}
	.st985{fill:#FDD94A;}
	.st986{fill:#FBCB4C;}
	.st987{fill:#FCDA77;}
	.st988{fill:#FCDA7C;}
	.st989{fill:#FBC844;}
	.st990{fill:#FCDA49;}
	.st991{fill:#D3B677;}
	.st992{fill:#FBDF63;}
	.st993{fill:#F1F4EE;}
	.st994{fill:#B3870B;}
	.st995{fill:#B68507;}
	.st996{fill:#F9D128;}
	.st997{fill:#7FC878;}
	.st998{fill:#3F9754;}
	.st999{fill:#60AF64;}
	.st1000{fill:#A3E695;}
	.st1001{fill:#2A844B;}
	.st1002{fill:#FCDF61;}
	.st1003{fill:#FDE890;}
	.st1004{fill:#2F9D13;}
	.st1005{fill:#5FBA44;}
	.st1006{fill:#468922;}
	.st1007{fill:#61C634;}
	.st1008{fill:#70D04A;}
	.st1009{fill:#5FCA49;}
	.st1010{fill:#4EBB1B;}
	.st1011{fill:#74CE47;}
	.st1012{fill:#7ED245;}
	.st1013{fill:#57BF0D;}
	.st1014{fill:#749925;}
	.st1015{fill:#616911;}
	.st1016{fill:#AF2727;}
	.st1017{fill:#C91B1C;}
	.st1018{fill:#F78586;}
	.st1019{fill:#C8C7C7;}
	.st1020{fill:#7A1C1C;}
	.st1021{fill:#EF7D61;}
	.st1022{fill:#E27446;}
	.st1023{fill:#E16C45;}
	.st1024{fill:#EB814E;}
	.st1025{fill:#EB894F;}
	.st1026{fill:#841A1A;}
	.st1027{fill:#EF824E;}
	.st1028{fill:#EB7745;}
	.st1029{fill:#EA7D46;}
	.st1030{fill:#F0814A;}
	.st1031{fill:#E87B46;}
	.st1032{fill:#E97843;}
	.st1033{fill:#EB7A4E;}
	.st1034{fill:#EF834A;}
	.st1035{fill:#EB784D;}
	.st1036{fill:#F17F4C;}
	.st1037{fill:#EF7F4D;}
	.st1038{fill:#EC8350;}
	.st1039{fill:#EE8342;}
	.st1040{fill:#E5774B;}
	.st1041{fill:#E7784B;}
	.st1042{fill:#F0744D;}
	.st1043{fill:#F27C50;}
	.st1044{fill:#F07F4D;}
	.st1045{fill:#EE804A;}
	.st1046{fill:#F0814B;}
	.st1047{fill:#F07C50;}
	.st1048{fill:#F37855;}
	.st1049{fill:#EE7945;}
	.st1050{fill:#F17C4B;}
	.st1051{fill:#ED7B47;}
	.st1052{fill:#F27A48;}
	.st1053{fill:#EE7B47;}
	.st1054{fill:#EF7547;}
	.st1055{fill:#F17548;}
	.st1056{fill:#F0754B;}
	.st1057{fill:#F57B4D;}
	.st1058{fill:#EE7949;}
	.st1059{fill:#EF7A4A;}
	.st1060{fill:#D4693C;}
	.st1061{fill:#D6623A;}
	.st1062{fill:#D86438;}
	.st1063{fill:#D36637;}
	.st1064{fill:#EC6D3E;}
	.st1065{fill:#E16B41;}
	.st1066{fill:#E86E44;}
	.st1067{fill:#A53312;}
	.st1068{fill:#9E2A0C;}
	.st1069{fill:#EF7A45;}
	.st1070{fill:#F57747;}
	.st1071{fill:#F5B44C;}
	.st1072{fill:#926938;}
	.st1073{fill:#F5E3C6;}
	.st1074{fill:#ECE505;}
	.st1075{fill:#F4EE6B;}
	.st1076{fill:#F9F9DE;}
	.st1077{fill:#F8F4A7;}
	.st1078{fill:#EFE72E;}
	.st1079{fill:#F3D729;}
	.st1080{fill:#F5C507;}
	.st1081{fill:#F6C408;}
	.st1082{fill:#FBF9D5;}
	.st1083{fill:#EFEA37;}
	.st1084{fill:#F8F49C;}
	.st1085{fill:#F4EF61;}
	.st1086{fill:#FBF39E;}
	.st1087{fill:#F6C307;}
	.st1088{fill:#F56A09;}
	.st1089{fill:#D76A26;}
	.st1090{fill:#20B405;}
	.st1091{fill:#7C8A06;}
	.st1092{fill:#FCB94F;}
	.st1093{fill:#EDA363;}
	.st1094{fill:#F3BF90;}
	.st1095{fill:#E17C1C;}
	.st1096{fill:#FCB549;}
	.st1097{fill:#B27D05;}
	.st1098{fill:#C57D07;}
	.st1099{fill:#EFA25D;}
	.st1100{fill:#FDCD81;}
	.st1101{fill:#47044A;}
	.st1102{fill:#440847;}
	.st1103{fill:#347708;}
	.st1104{fill:#41220E;}
	.st1105{fill:#6C446F;}
	.st1106{fill:#5E0166;}
	.st1107{fill:#620166;}
	.st1108{fill:#5D0165;}
	.st1109{fill:#620265;}
	.st1110{fill:#640166;}
	.st1111{fill:#975298;}
	.st1112{fill:#C3C2C3;}
	.st1113{fill:#630165;}
	.st1114{fill:#965296;}
	.st1115{fill:#985299;}
	.st1116{fill:#985198;}
	.st1117{fill:#5F0165;}
	.st1118{fill:#99539D;}
	.st1119{fill:#9857A2;}
	.st1120{fill:#965BA3;}
	.st1121{fill:#570066;}
	.st1122{fill:#5A0166;}
	.st1123{fill:#985296;}
	.st1124{fill:#965397;}
	.st1125{fill:#9C5FA5;}
	.st1126{fill:#329403;}
	.st1127{fill:#86368D;}
	.st1128{fill:#5D0661;}
	.st1129{fill:#F9FBF8;}
	.st1130{fill:#FE7B80;}
	.st1131{fill:#FA272F;}
	.st1132{fill:#FE9092;}
	.st1133{fill:#A0DF7A;}
	.st1134{fill:#4A7916;}
	.st1135{fill:#FB3D44;}
	.st1136{fill:#FCA4A5;}
	.st1137{fill:#EF5549;}
	.st1138{fill:#9AEC60;}
	.st1139{fill:#307C14;}
	.st1140{fill:#84BD5D;}
	.st1141{fill:#D6B47A;}
	.st1142{fill:#63A42A;}
	.st1143{fill:#E8896D;}
	.st1144{fill:#CCA35F;}
	.st1145{fill:#E63141;}
	.st1146{fill:#FD6167;}
	.st1147{fill:#E1372F;}
	.st1148{fill:#CD633B;}
	.st1149{fill:#EA8470;}
	.st1150{fill:#FB4F56;}
	.st1151{fill:#490908;}
	.st1152{fill:#4A0C0A;}
	.st1153{fill:#3C0907;}
	.st1154{fill:#3F0809;}
	.st1155{fill:#774548;}
	.st1156{fill:#8F6760;}
	.st1157{fill:#4C0B08;}
	.st1158{fill:#6BA448;}
	.st1159{fill:#2A7A16;}
	.st1160{fill:#B4EF88;}
	.st1161{fill:#98C752;}
	.st1162{fill:#85BC62;}
	.st1163{fill:#6D982D;}
	.st1164{fill:#69972B;}
	.st1165{fill:#D47F44;}
	.st1166{fill:#450707;}
	.st1167{fill:#84B443;}
	.st1168{fill:#7CD047;}
	.st1169{fill:#BC8F45;}
	.st1170{fill:#D6B279;}
	.st1171{fill:#7F4444;}
	.st1172{fill:#754443;}
	.st1173{fill:#71433F;}
	.st1174{fill:#A47C75;}
	.st1175{fill:#611910;}
	.st1176{fill:#6A1E14;}
	.st1177{fill:#58170E;}
	.st1178{fill:#885844;}
	.st1179{fill:#B89648;}
	.st1180{fill:#DAAA7A;}
	.st1181{fill:#836264;}
	.st1182{fill:#865C51;}
	.st1183{fill:#825B5A;}
	.st1184{fill:#A48B8C;}
	.st1185{fill:#836160;}
	.st1186{fill:#A18887;}
	.st1187{fill:#A88785;}
	.st1188{fill:#886256;}
	.st1189{fill:#94675A;}
	.st1190{fill:#67C737;}
	.st1191{fill:#68C339;}
	.st1192{fill:#3F240C;}
	.st1193{fill:#82C46F;}
	.st1194{fill:#5EAB68;}
	.st1195{fill:#A2E184;}
	.st1196{fill:#CECECE;}
	.st1197{fill:#97FE67;}
	.st1198{fill:#A2FB76;}
	.st1199{fill:#ABE987;}
	.st1200{fill:#308B4A;}
	.st1201{fill:#126B2C;}
	.st1202{fill:#88CC7A;}
	.st1203{fill:#A4E989;}
	.st1204{fill:#5EAC62;}
	.st1205{fill:#86DB59;}
	.st1206{fill:#E9F7DF;}
	.st1207{fill:#A0C48B;}
	.st1208{fill:#1E761C;}
	.st1209{fill:#B8FA96;}
	.st1210{fill:#44A340;}
	.st1211{fill:#85DC55;}
	.st1212{fill:#B1C3AA;}
	.st1213{fill:#8BD758;}
	.st1214{fill:#8AD756;}
	.st1215{fill:#83DE4F;}
	.st1216{fill:#BCF69B;}
	.st1217{fill:#B9FD96;}
	.st1218{fill:#3C9556;}
	.st1219{fill:#D0FDB9;}
	.st1220{fill:#C5350B;}
	.st1221{fill:#E4E3E3;}
	.st1222{fill:#4BA712;}
	.st1223{fill:#1D631F;}
	.st1224{fill:#4B230E;}
	.st1225{fill:#FBBFA2;}
	.st1226{fill:#FD9964;}
	.st1227{fill:#DF5927;}
	.st1228{fill:#F0936D;}
	.st1229{fill:#D1CFCF;}
	.st1230{fill:#F48554;}
	.st1231{fill:#EA6E3D;}
	.st1232{fill:#FAC0A0;}
	.st1233{fill:#ED7240;}
	.st1234{fill:#F89B68;}
	.st1235{fill:#FA9967;}
	.st1236{fill:#E0602F;}
	.st1237{fill:#EB7F54;}
	.st1238{fill:#A9E585;}
	.st1239{fill:#87C95D;}
	.st1240{fill:#FDB28C;}
	.st1241{fill:#FE9866;}
	.st1242{fill:#EB6F3D;}
	.st1243{fill:#FDDECC;}
	.st1244{fill:#E3E4E3;}
	.st1245{fill:#348107;}
	.st1246{fill:#BEBD10;}
	.st1247{fill:#CBCBCB;}
	.st1248{fill:#DFDA09;}
	.st1249{fill:#FEFE02;}
	.st1250{fill:#E1DA0A;}
	.st1251{fill:#F5F19C;}
	.st1252{fill:#F8F821;}
	.st1253{fill:#CCCB37;}
	.st1254{fill:#F9FA61;}
	.st1255{fill:#F6F65E;}
	.st1256{fill:#ECED5C;}
	.st1257{fill:#F8F66D;}
	.st1258{fill:#F4F29B;}
	.st1259{fill:#B9BAA0;}
	.st1260{fill:#E7E931;}
	.st1261{fill:#E2DC38;}
	.st1262{fill:#FAFA41;}
	.st1263{fill:#F9FA2D;}
	.st1264{fill:#FAFB69;}
	.st1265{fill:#F9F749;}
	.st1266{fill:#FBFA71;}
	.st1267{fill:#FDF969;}
	.st1268{fill:#FCFC5F;}
	.st1269{fill:#FBFA5A;}
	.st1270{fill:#FAF951;}
	.st1271{fill:#FEFA8A;}
	.st1272{fill:#38880C;}
	.st1273{fill:#347D0C;}
	.st1274{fill:#5B0706;}
	.st1275{fill:#540A06;}
	.st1276{fill:#760707;}
	.st1277{fill:#61771B;}
	.st1278{fill:#C7C6C5;}
	.st1279{fill:#670505;}
	.st1280{fill:#96F616;}
	.st1281{fill:#87DE13;}
	.st1282{fill:#5AB916;}
	.st1283{fill:#6ECB19;}
	.st1284{fill:#5A5810;}
	.st1285{fill:#53B921;}
	.st1286{fill:#329602;}
	.st1287{fill:#780501;}
	.st1288{fill:#B95553;}
	.st1289{fill:#760505;}
	.st1290{fill:#BA504F;}
	.st1291{fill:#E5E4E6;}
	.st1292{fill:#C6807F;}
	.st1293{fill:#964A46;}
	.st1294{fill:#880100;}
	.st1295{fill:#BA5352;}
	.st1296{fill:#ABABAB;}
	.st1297{fill:#C8827F;}
	.st1298{fill:#CE8683;}
	.st1299{fill:#84393A;}
	.st1300{fill:#B32C2C;}
	.st1301{fill:#970102;}
	.st1302{fill:#CE837F;}
	.st1303{fill:#B42F2F;}
	.st1304{fill:#B10942;}
	.st1305{fill:#386508;}
	.st1306{fill:#831E3F;}
	.st1307{fill:#C43E6A;}
	.st1308{fill:#842045;}
	.st1309{fill:#851737;}
	.st1310{fill:#673728;}
	.st1311{fill:#A1496B;}
	.st1312{fill:#C6C5C5;}
	.st1313{fill:#C30A40;}
	.st1314{fill:#AEAEAE;}
	.st1315{fill:#CD426D;}
	.st1316{fill:#D04A71;}
	.st1317{fill:#C93B6A;}
	.st1318{fill:#752523;}
	.st1319{fill:#8B3541;}
	.st1320{fill:#CF305E;}
	.st1321{fill:#CE3E6A;}
	.st1322{fill:#CF476D;}
	.st1323{fill:#CA3E6A;}
	.st1324{fill:#C23664;}
	.st1325{fill:#BD3363;}
	.st1326{fill:#C63867;}
	.st1327{fill:#C23C69;}
	.st1328{fill:#C53B6B;}
	.st1329{fill:#C23C6C;}
	.st1330{fill:#DC517D;}
	.st1331{fill:#669834;}
	.st1332{fill:#B14C72;}
	.st1333{fill:#88B362;}
	.st1334{fill:#679833;}
	.st1335{fill:#659935;}
	.st1336{fill:#659732;}
	.st1337{fill:#8CB362;}
	.st1338{fill:#DC6D8D;}
	.st1339{fill:#649531;}
	.st1340{fill:#DF7998;}
	.st1341{fill:#A40F43;}
	.st1342{fill:#AB0F40;}
	.st1343{fill:#A80E3E;}
	.st1344{fill:#3D0133;}
	.st1345{fill:#1E651B;}
	.st1346{fill:#482516;}
	.st1347{fill:#5EBB0B;}
	.st1348{fill:#660032;}
	.st1349{fill:#8B4065;}
	.st1350{fill:#650132;}
	.st1351{fill:#784064;}
	.st1352{fill:#A26786;}
	.st1353{fill:#A57B98;}
	.st1354{fill:#600532;}
	.st1355{fill:#9A5075;}
	.st1356{fill:#B6EC8F;}
	.st1357{fill:#541D4A;}
	.st1358{fill:#49A215;}
	.st1359{fill:#4AA416;}
	.st1360{fill:#96D267;}
	.st1361{fill:#71B95A;}
	.st1362{fill:#4A0034;}
	.st1363{fill:#7E2A55;}
	.st1364{fill:#C2A2B7;}
	.st1365{fill:#F3F3F5;}
	.st1366{fill:#975297;stroke:#5E0165;stroke-width:3;stroke-linecap:round;stroke-linejoin:round;stroke-miterlimit:10;}
	.st1367{fill:#FECB00;stroke:#FEB501;stroke-width:3;stroke-linecap:round;stroke-linejoin:round;stroke-miterlimit:10;}
	.st1368{fill:#FD9193;stroke:#FC262D;stroke-width:3;stroke-linecap:round;stroke-linejoin:round;stroke-miterlimit:10;}
	.st1369{fill:#44AA00;stroke:#338000;stroke-width:3;stroke-linecap:round;stroke-linejoin:round;stroke-miterlimit:10;}
	.st1370{fill:#D6527B;stroke:#B10842;stroke-width:3;stroke-linecap:round;stroke-linejoin:round;stroke-miterlimit:10;}
	.st1371{fill:#BF662B;}
	.st1372{fill:#F0AA3D;}
	.st1373{fill:#FFCD57;}
	.st1374{fill:#D87330;}
	.st1375{fill:url(#SVGID_259_);}
	.st1376{fill:url(#SVGID_260_);}
	.st1377{fill:url(#SVGID_261_);}
	.st1378{fill:url(#SVGID_262_);}
	.st1379{fill:url(#SVGID_263_);}
	.st1380{fill:url(#SVGID_264_);}
	.st1381{fill:url(#SVGID_265_);}
	.st1382{fill:url(#SVGID_266_);}
	.st1383{fill:url(#SVGID_267_);}
	.st1384{fill:url(#SVGID_268_);}
	.st1385{fill:url(#SVGID_269_);}
	.st1386{fill:url(#SVGID_270_);}
	.st1387{fill:url(#SVGID_271_);}
	.st1388{fill:url(#SVGID_272_);}
	.st1389{fill:url(#SVGID_273_);}
	.st1390{fill:url(#SVGID_274_);}
	.st1391{fill:url(#SVGID_275_);}
	.st1392{fill:url(#SVGID_276_);}
	.st1393{fill:url(#SVGID_277_);}
	.st1394{fill:url(#SVGID_278_);}
	.st1395{fill:url(#SVGID_279_);}
	.st1396{fill:url(#SVGID_280_);}
	.st1397{fill:url(#SVGID_281_);}
	.st1398{fill:url(#SVGID_282_);}
	.st1399{fill:url(#SVGID_283_);}
	.st1400{fill:url(#SVGID_284_);}
	.st1401{fill:url(#SVGID_285_);}
	.st1402{fill:url(#SVGID_286_);}
	.st1403{fill:url(#SVGID_287_);}
	.st1404{fill:url(#SVGID_288_);}
	.st1405{fill:url(#SVGID_289_);}
	.st1406{fill:url(#SVGID_290_);}
	.st1407{fill:url(#SVGID_291_);}
	.st1408{fill:url(#SVGID_292_);}
	.st1409{fill:url(#SVGID_293_);}
	.st1410{fill:url(#SVGID_294_);}
	.st1411{fill:url(#SVGID_295_);}
	.st1412{fill:url(#SVGID_296_);}
	.st1413{fill:url(#SVGID_297_);}
	.st1414{fill:url(#SVGID_298_);}
	.st1415{fill:url(#SVGID_299_);}
	.st1416{fill:url(#SVGID_300_);}
	.st1417{fill:url(#SVGID_301_);}
	.st1418{fill:url(#SVGID_302_);}
	.st1419{fill:url(#SVGID_303_);}
	.st1420{fill:url(#SVGID_304_);}
	.st1421{fill:url(#SVGID_305_);}
	.st1422{fill:url(#SVGID_306_);}
	.st1423{fill:url(#SVGID_307_);}
	.st1424{fill:url(#SVGID_308_);}
	.st1425{fill:url(#SVGID_309_);}
	.st1426{fill:url(#SVGID_310_);}
	.st1427{fill:url(#SVGID_311_);}
	.st1428{fill:url(#SVGID_312_);}
	.st1429{fill:url(#SVGID_313_);}
	.st1430{fill:url(#SVGID_314_);}
	.st1431{fill:url(#SVGID_315_);}
	.st1432{fill:url(#SVGID_316_);}
	.st1433{fill:url(#SVGID_317_);}
	.st1434{fill:url(#SVGID_318_);}
	.st1435{fill:url(#SVGID_319_);}
	.st1436{fill:url(#SVGID_320_);}
	.st1437{fill:url(#SVGID_321_);}
	.st1438{fill:url(#SVGID_322_);}
	.st1439{fill:url(#SVGID_323_);}
	.st1440{fill:url(#SVGID_324_);}
	.st1441{fill:url(#SVGID_325_);}
	.st1442{fill:url(#SVGID_326_);}
	.st1443{fill:url(#SVGID_327_);}
	.st1444{fill:url(#SVGID_328_);}
	.st1445{fill:url(#SVGID_329_);}
	.st1446{fill:url(#SVGID_330_);}
	.st1447{fill:url(#SVGID_331_);}
	.st1448{fill:url(#SVGID_332_);}
	.st1449{fill:url(#SVGID_333_);}
	.st1450{fill:url(#SVGID_334_);}
	.st1451{fill:url(#SVGID_335_);}
	.st1452{fill:url(#SVGID_336_);}
	.st1453{fill:url(#SVGID_337_);}
	.st1454{fill:url(#SVGID_338_);}
	.st1455{fill:url(#SVGID_339_);}
	.st1456{fill:url(#SVGID_340_);}
	.st1457{fill:url(#SVGID_341_);}
	.st1458{fill:url(#SVGID_342_);}
	.st1459{fill:url(#SVGID_343_);}
	.st1460{fill:url(#SVGID_344_);}
	.st1461{fill:url(#SVGID_345_);}
	.st1462{fill:url(#SVGID_346_);}
	.st1463{fill:url(#SVGID_347_);}
	.st1464{fill:url(#SVGID_348_);}
	.st1465{fill:url(#SVGID_349_);}
	.st1466{fill:url(#SVGID_350_);}
	.st1467{fill:url(#SVGID_351_);}
	.st1468{fill:url(#SVGID_352_);}
	.st1469{fill:url(#SVGID_353_);}
	.st1470{fill:url(#SVGID_354_);}
	.st1471{fill:url(#SVGID_355_);}
	.st1472{fill:url(#SVGID_356_);}
	.st1473{fill:url(#SVGID_357_);}
	.st1474{fill:url(#SVGID_358_);}
	.st1475{fill:url(#SVGID_359_);}
	.st1476{fill:url(#SVGID_360_);}
	.st1477{fill:url(#SVGID_361_);}
	.st1478{fill:url(#SVGID_362_);}
	.st1479{fill:url(#SVGID_363_);}
	.st1480{fill:url(#SVGID_364_);}
	.st1481{fill:url(#SVGID_365_);}
	.st1482{fill:url(#SVGID_366_);}
	.st1483{fill:url(#SVGID_367_);}
	.st1484{fill:url(#SVGID_368_);}
	.st1485{fill:url(#SVGID_369_);}
	.st1486{fill:url(#SVGID_370_);}
	.st1487{fill:url(#SVGID_371_);}
	.st1488{fill:url(#SVGID_372_);}
	.st1489{fill:url(#SVGID_373_);}
	.st1490{fill:url(#SVGID_374_);}
	.st1491{fill:url(#SVGID_375_);}
	.st1492{fill:url(#SVGID_376_);}
	.st1493{fill:url(#SVGID_377_);}
	.st1494{fill:url(#SVGID_378_);}
	.st1495{fill:url(#SVGID_379_);}
	.st1496{fill:url(#SVGID_380_);}
	.st1497{fill:url(#SVGID_381_);}
	.st1498{fill:url(#SVGID_382_);}
	.st1499{fill:url(#SVGID_383_);}
	.st1500{fill:url(#SVGID_384_);}
	.st1501{fill:url(#SVGID_385_);}
	.st1502{fill:url(#SVGID_386_);}
	.st1503{fill:url(#SVGID_387_);}
	.st1504{fill:url(#SVGID_388_);}
	.st1505{fill:url(#SVGID_389_);}
	.st1506{fill:url(#SVGID_390_);}
	.st1507{fill:url(#SVGID_391_);}
	.st1508{fill:url(#SVGID_392_);}
	.st1509{fill:url(#SVGID_393_);}
	.st1510{fill:url(#SVGID_394_);}
</style>
<g id="Layer_1">
	
		<radialGradient id="SVGID_1_" cx="634.1955" cy="940.3786" r="1111.8191" gradientTransform="matrix(1 0 0 1.0916 0 -6.586734e-02)" gradientUnits="userSpaceOnUse">
		<stop  offset="9.139780e-02" style="stop-color:#FFFFFF"/>
		<stop  offset="0.181" style="stop-color:#FAFDFE"/>
		<stop  offset="0.2802" style="stop-color:#EDF8FD"/>
		<stop  offset="0.3841" style="stop-color:#D7EFF9"/>
		<stop  offset="0.4911" style="stop-color:#B8E3F5"/>
		<stop  offset="0.6007" style="stop-color:#90D3F0"/>
		<stop  offset="0.7116" style="stop-color:#5FC0E9"/>
		<stop  offset="0.8226" style="stop-color:#27AAE1"/>
		<stop  offset="1" style="stop-color:#00A79D"/>
	</radialGradient>
	<rect x="-4.9" y="0.7" class="st5" width="1289.9" height="1126.5"/>
	<g>
		<defs>
			<rect id="SVGID_5_" x="-4.9" y="0.7" width="1289.9" height="1031.9"/>
		</defs>
		<clipPath id="SVGID_2_">
			<use xlink:href="#SVGID_5_"  style="overflow:visible;"/>
		</clipPath>
		<path style="opacity:0.3;clip-path:url(#SVGID_2_);fill:#FFFFFF;" d="M985.6,470.4c-21.6,0-41.1,9.1-54.9,23.7
			c-16.7-49.8-63.8-85.6-119.2-85.6c-23.6,0-45.6,6.5-64.5,17.8c-19.3-44.6-63.7-75.8-115.4-75.8c-1.1,0-2.2,0-3.2,0
			C598,282,529.4,234.3,449.7,234.3c-82.3,0-152.7,50.9-181.5,122.9c-12.8-4.4-26.6-6.8-41-6.8c-53.1,0-98.5,32.9-116.9,79.4
			c-1,0-2-0.1-3-0.1C62.4,429.7,26,466.1,26,511c0,44.9,36.4,81.3,81.3,81.3c17.1,0,33-5.3,46.1-14.3c20.7,15.1,46.3,24,73.9,24
			c14.6,0,28.6-2.5,41.6-7c-1.9,6.5-2.9,13.4-2.9,20.6c0,41.7,33.8,75.5,75.5,75.5c22.4,0,42.6-9.8,56.4-25.4
			c17.9,47.6,63.9,81.5,117.7,81.5c46.2,0,86.5-24.9,108.4-62c13.1,10.9,29.9,17.5,48.3,17.5c36.7,0,67.2-26.2,74-60.8
			c19,11.6,41.4,18.2,65.3,18.2c49.5,0,92.3-28.6,112.8-70.2c13.7,19.1,36,31.5,61.3,31.5c41.7,0,75.5-33.8,75.5-75.5
			C1061.1,504.1,1027.3,470.4,985.6,470.4z"/>
		<path style="opacity:0.3;clip-path:url(#SVGID_2_);fill:#FFFFFF;" d="M343.3,100.8c-21.6,0-41.1,9.1-54.9,23.7
			c-16.7-49.8-63.8-85.6-119.2-85.6c-23.6,0-45.6,6.5-64.5,17.8C85.4,12.1,41-19.1-10.7-19.1c-1.1,0-2.2,0-3.2,0
			c-30.4-68.4-98.9-116.1-178.6-116.1c-82.3,0-152.7,50.9-181.5,122.9c-12.8-4.4-26.6-6.8-41-6.8c-53.1,0-98.5,32.9-116.9,79.4
			c-1,0-2-0.1-3-0.1c-44.9,0-81.3,36.4-81.3,81.3c0,44.9,36.4,81.3,81.3,81.3c17.1,0,33-5.3,46.1-14.3c20.7,15.1,46.3,24,73.9,24
			c14.6,0,28.5-2.5,41.6-7c-1.9,6.5-2.9,13.4-2.9,20.6c0,41.7,33.8,75.5,75.5,75.5c22.4,0,42.6-9.8,56.4-25.4
			c17.9,47.6,63.9,81.5,117.7,81.5c46.2,0,86.5-24.9,108.4-62C-5.3,326.4,11.5,333,29.9,333c36.7,0,67.2-26.1,74-60.8
			c19,11.6,41.4,18.2,65.3,18.2c49.5,0,92.3-28.6,112.8-70.2c13.7,19.1,36,31.5,61.3,31.5c41.7,0,75.5-33.8,75.5-75.5
			C418.8,134.6,385,100.8,343.3,100.8z"/>
		<path style="opacity:0.3;clip-path:url(#SVGID_2_);fill:#FFFFFF;" d="M748.2,177.5c-5.9,0-11.3,2.5-15.1,6.5
			c-4.6-13.7-17.5-23.5-32.8-23.5c-6.5,0-12.5,1.8-17.7,4.9c-5.3-12.3-17.5-20.8-31.7-20.8c-0.3,0-0.6,0-0.9,0
			c-8.4-18.8-27.2-31.9-49.1-31.9c-22.6,0-42,14-49.9,33.8c-3.5-1.2-7.3-1.9-11.3-1.9c-14.6,0-27.1,9-32.1,21.8c-0.3,0-0.6,0-0.8,0
			c-12.3,0-22.3,10-22.3,22.3c0,12.3,10,22.3,22.3,22.3c4.7,0,9.1-1.5,12.7-3.9c5.7,4.1,12.7,6.6,20.3,6.6c4,0,7.8-0.7,11.4-1.9
			c-0.5,1.8-0.8,3.7-0.8,5.7c0,11.5,9.3,20.7,20.7,20.7c6.2,0,11.7-2.7,15.5-7c4.9,13.1,17.5,22.4,32.3,22.4
			c12.7,0,23.8-6.8,29.8-17c3.6,3,8.2,4.8,13.3,4.8c10.1,0,18.5-7.2,20.3-16.7c5.2,3.2,11.4,5,17.9,5c13.6,0,25.4-7.9,31-19.3
			c3.8,5.2,9.9,8.7,16.8,8.7c11.5,0,20.7-9.3,20.7-20.7C769,186.7,759.7,177.5,748.2,177.5z"/>
		<path style="opacity:0.3;clip-path:url(#SVGID_2_);fill:#FFFFFF;" d="M963,456.1c-5.9,0-11.3,2.5-15.1,6.5
			c-4.6-13.7-17.5-23.5-32.8-23.5c-6.5,0-12.5,1.8-17.7,4.9c-5.3-12.3-17.5-20.8-31.7-20.8c-0.3,0-0.6,0-0.9,0
			c-8.4-18.8-27.2-31.9-49.1-31.9c-22.6,0-42,14-49.9,33.8c-3.5-1.2-7.3-1.9-11.3-1.9c-14.6,0-27.1,9-32.1,21.8c-0.3,0-0.6,0-0.8,0
			c-12.3,0-22.3,10-22.3,22.3c0,12.3,10,22.3,22.3,22.3c4.7,0,9.1-1.5,12.7-3.9c5.7,4.1,12.7,6.6,20.3,6.6c4,0,7.8-0.7,11.4-1.9
			c-0.5,1.8-0.8,3.7-0.8,5.7c0,11.5,9.3,20.7,20.7,20.7c6.2,0,11.7-2.7,15.5-7c4.9,13.1,17.5,22.4,32.3,22.4
			c12.7,0,23.8-6.8,29.8-17c3.6,3,8.2,4.8,13.3,4.8c10.1,0,18.5-7.2,20.3-16.7c5.2,3.2,11.4,5,17.9,5c13.6,0,25.4-7.9,31-19.3
			c3.8,5.2,9.9,8.6,16.8,8.6c11.5,0,20.7-9.3,20.7-20.7S974.4,456.1,963,456.1z"/>
		<path style="opacity:0.3;clip-path:url(#SVGID_2_);fill:#FFFFFF;" d="M218.1,475.4c-5.9,0-11.3,2.5-15.1,6.5
			c-4.6-13.7-17.5-23.5-32.8-23.5c-6.5,0-12.5,1.8-17.7,4.9c-5.3-12.3-17.5-20.8-31.7-20.8c-0.3,0-0.6,0-0.9,0
			c-8.4-18.8-27.2-31.9-49.1-31.9c-22.6,0-42,14-49.9,33.8c-3.5-1.2-7.3-1.9-11.3-1.9c-14.6,0-27.1,9-32.1,21.8c-0.3,0-0.6,0-0.8,0
			c-12.3,0-22.3,10-22.3,22.3c0,12.3,10,22.3,22.3,22.3c4.7,0,9.1-1.5,12.7-3.9c5.7,4.1,12.7,6.6,20.3,6.6c4,0,7.8-0.7,11.4-1.9
			c-0.5,1.8-0.8,3.7-0.8,5.7c0,11.5,9.3,20.7,20.7,20.7c6.2,0,11.7-2.7,15.5-7c4.9,13.1,17.5,22.4,32.3,22.4
			c12.7,0,23.8-6.8,29.8-17c3.6,3,8.2,4.8,13.3,4.8c10.1,0,18.5-7.2,20.3-16.7c5.2,3.2,11.4,5,17.9,5c13.6,0,25.4-7.9,31-19.3
			c3.8,5.2,9.9,8.7,16.8,8.7c11.5,0,20.7-9.3,20.7-20.7C238.8,484.7,229.6,475.4,218.1,475.4z"/>
		<path style="opacity:0.3;clip-path:url(#SVGID_2_);fill:#FFFFFF;" d="M1086.8-21.8c-5.9,0-11.3,2.5-15.1,6.5
			c-4.6-13.7-17.5-23.5-32.8-23.5c-6.5,0-12.5,1.8-17.7,4.9c-5.3-12.3-17.5-20.8-31.7-20.8c-0.3,0-0.6,0-0.9,0
			c-8.4-18.8-27.2-31.9-49.1-31.9c-22.6,0-42,14-49.9,33.8c-3.5-1.2-7.3-1.9-11.3-1.9c-14.6,0-27.1,9-32.1,21.8c-0.3,0-0.6,0-0.8,0
			c-12.3,0-22.3,10-22.3,22.3c0,12.3,10,22.3,22.3,22.3c4.7,0,9.1-1.5,12.7-3.9c5.7,4.1,12.7,6.6,20.3,6.6c4,0,7.8-0.7,11.4-1.9
			c-0.5,1.8-0.8,3.7-0.8,5.7c0,11.5,9.3,20.7,20.7,20.7c6.2,0,11.7-2.7,15.5-7c4.9,13.1,17.5,22.4,32.3,22.4
			c12.7,0,23.8-6.8,29.8-17c3.6,3,8.2,4.8,13.3,4.8c10.1,0,18.5-7.2,20.3-16.7c5.2,3.2,11.4,5,17.9,5c13.6,0,25.4-7.9,31-19.3
			c3.8,5.2,9.9,8.7,16.8,8.7c11.5,0,20.7-9.3,20.7-20.7C1107.5-12.5,1098.2-21.8,1086.8-21.8z"/>
		<path style="opacity:0.3;clip-path:url(#SVGID_2_);fill:#FFFFFF;" d="M1415.7,516c-5.9,0-11.3,2.5-15.1,6.5
			c-4.6-13.7-17.5-23.5-32.8-23.5c-6.5,0-12.5,1.8-17.7,4.9c-5.3-12.3-17.5-20.8-31.7-20.8c-0.3,0-0.6,0-0.9,0
			c-8.4-18.8-27.2-31.9-49.1-31.9c-22.6,0-42,14-49.9,33.8c-3.5-1.2-7.3-1.9-11.3-1.9c-14.6,0-27.1,9-32.1,21.8c-0.3,0-0.6,0-0.8,0
			c-12.3,0-22.3,10-22.3,22.3c0,12.3,10,22.3,22.3,22.3c4.7,0,9.1-1.5,12.7-3.9c5.7,4.1,12.7,6.6,20.3,6.6c4,0,7.8-0.7,11.4-1.9
			c-0.5,1.8-0.8,3.7-0.8,5.7c0,11.5,9.3,20.7,20.7,20.7c6.2,0,11.7-2.7,15.5-7c4.9,13.1,17.5,22.4,32.3,22.4
			c12.7,0,23.8-6.8,29.8-17c3.6,3,8.2,4.8,13.3,4.8c10.1,0,18.5-7.2,20.3-16.7c5.2,3.2,11.4,5,17.9,5c13.6,0,25.4-7.9,31-19.3
			c3.8,5.2,9.9,8.7,16.8,8.7c11.5,0,20.7-9.3,20.7-20.7C1436.4,525.3,1427.1,516,1415.7,516z"/>
	</g>
	<g class="st16">
		<defs>
			<rect id="SVGID_7_" x="-4.9" y="0.7" class="st16" width="1289.9" height="1031.9"/>
		</defs>
		<clipPath id="SVGID_3_">
			<use xlink:href="#SVGID_7_"  style="overflow:visible;"/>
		</clipPath>
	</g>
	<path class="st17" d="M612.8,657.3c-5.9,0-11.3,2.5-15.1,6.5c-4.6-13.7-17.5-23.5-32.8-23.5c-6.5,0-12.5,1.8-17.7,4.9
		c-5.3-12.3-17.5-20.8-31.7-20.8c-0.3,0-0.6,0-0.9,0c-8.4-18.8-27.2-31.9-49.1-31.9c-22.6,0-42,14-49.9,33.8
		c-3.5-1.2-7.3-1.9-11.3-1.9c-14.6,0-27.1,9-32.1,21.8c-0.3,0-0.6,0-0.8,0c-12.3,0-22.3,10-22.3,22.3c0,12.3,10,22.3,22.3,22.3
		c4.7,0,9.1-1.5,12.7-3.9c5.7,4.1,12.7,6.6,20.3,6.6c4,0,7.8-0.7,11.4-1.9c-0.5,1.8-0.8,3.7-0.8,5.7c0,11.5,9.3,20.7,20.7,20.7
		c6.2,0,11.7-2.7,15.5-7c4.9,13.1,17.5,22.4,32.3,22.4c12.7,0,23.8-6.8,29.8-17c3.6,3,8.2,4.8,13.3,4.8c10.1,0,18.5-7.2,20.3-16.7
		c5.2,3.2,11.4,5,17.9,5c13.6,0,25.4-7.9,31-19.3c3.8,5.2,9.9,8.6,16.8,8.6c11.5,0,20.7-9.3,20.7-20.7
		C633.5,666.6,624.2,657.3,612.8,657.3z"/>
	<path class="st17" d="M1699.6,160.8c-21.6,0-41.1,9.1-54.9,23.7c-16.7-49.8-63.8-85.6-119.2-85.6c-23.6,0-45.6,6.5-64.5,17.8
		c-19.3-44.6-63.7-75.8-115.4-75.8c-1.1,0-2.2,0-3.2,0c-30.4-68.4-98.9-116.1-178.6-116.1c-82.3,0-152.7,50.9-181.5,122.9
		c-12.8-4.4-26.6-6.8-41-6.8c-53.1,0-98.5,32.9-116.9,79.4c-1,0-2-0.1-3-0.1c-44.9,0-81.3,36.4-81.3,81.3
		c0,44.9,36.4,81.3,81.3,81.3c17.1,0,33-5.3,46.1-14.3c20.7,15.1,46.3,24,73.9,24c14.6,0,28.6-2.5,41.6-7
		c-1.9,6.5-2.9,13.4-2.9,20.6c0,41.7,33.8,75.5,75.5,75.5c22.4,0,42.6-9.8,56.4-25.4c17.9,47.6,63.9,81.5,117.7,81.5
		c46.2,0,86.5-24.9,108.4-62c13.1,10.9,29.9,17.5,48.3,17.5c36.7,0,67.2-26.1,74-60.8c19,11.6,41.4,18.2,65.3,18.2
		c49.5,0,92.3-28.6,112.8-70.2c13.7,19.1,36,31.5,61.3,31.5c41.7,0,75.5-33.8,75.5-75.5C1775,194.6,1741.2,160.8,1699.6,160.8z"/>
	<polygon class="st104" points="780,292.5 780.7,293.6 780.7,293.2 	"/>
	
		<linearGradient id="SVGID_4_" gradientUnits="userSpaceOnUse" x1="353.2653" y1="1570.1116" x2="353.2653" y2="1139.5629" gradientTransform="matrix(1 0 0 1 284.2639 -283.0295)">
		<stop  offset="0.3776" style="stop-color:#FFFFFF"/>
		<stop  offset="0.8226" style="stop-color:#FFFFFF;stop-opacity:0"/>
	</linearGradient>
	<rect x="-4.9" y="856.5" class="st14" width="1284.9" height="430.5"/>
</g>
<g id="Layer_2">
</g>
</svg>
